<svg width="34" height="30" fill="none" xmlns="http://www.w3.org/2000/svg"><path d="M8.36 29.7c-2.567 0-4.62-.917-6.16-2.75C.733 25.043 0 22.587 0 19.58c0-4.107 1.1-7.81 3.3-11.11C5.573 5.097 9.02 2.273 13.64 0l1.21 1.76c-2.2 1.32-4.217 3.19-6.05 5.61-1.76 2.347-2.64 4.73-2.64 7.15 0 .66.183 1.21.55 1.65.367.367.917.55 1.65.55 1.833 0 3.373.66 4.62 1.98 1.32 1.247 1.98 2.787 1.98 4.62 0 1.833-.66 3.373-1.98 4.62-1.247 1.173-2.787 1.76-4.62 1.76zm19.03 0c-2.567 0-4.62-.917-6.16-2.75-1.467-1.907-2.2-4.363-2.2-7.37 0-4.107 1.1-7.81 3.3-11.11C24.603 5.097 28.05 2.273 32.67 0l1.21 1.76c-2.2 1.32-4.217 3.19-6.05 5.61-1.76 2.347-2.64 4.73-2.64 7.15 0 .66.183 1.21.55 1.65.367.367.917.55 1.65.55 1.833 0 3.373.66 4.62 1.98 1.32 1.247 1.98 2.787 1.98 4.62 0 1.833-.66 3.373-1.98 4.62-1.247 1.173-2.787 1.76-4.62 1.76z" fill="#066EAE"/></svg>