<svg width="14" height="29" fill="none" xmlns="http://www.w3.org/2000/svg"><rect x=".5" y="15.5" width="13" height="13" rx="1.5" fill="#fff" stroke="#066EAE"/><path d="M11.368.747c.276.003.5.229.5.505a.494.494 0 01-.5.495l-9-.095a.506.506 0 01-.5-.505c0-.277.225-.498.5-.495l9 .095z" fill="#C4C4C4"/><path fill-rule="evenodd" clip-rule="evenodd" d="M8.707 17.146a.562.562 0 01.755 0l1.872 1.728a.507.507 0 010 .752l-1.872 1.728a.562.562 0 01-.755 0 .507.507 0 010-.751l.9-.831H3.522a.522.522 0 110-1.044h6.085l-.9-.83a.507.507 0 010-.752zm-3.414 5a.562.562 0 00-.755 0l-1.871 1.728a.507.507 0 000 .752l1.871 1.728a.56.56 0 00.755 0 .507.507 0 000-.751l-.9-.831h6.085a.522.522 0 100-1.044H4.393l.9-.83a.507.507 0 000-.752z" fill="#066EAE"/></svg>