<svg width="17" height="17" fill="none" xmlns="http://www.w3.org/2000/svg"><path fill-rule="evenodd" clip-rule="evenodd" d="M1.4 0A1.4 1.4 0 000 1.4v14.2A1.4 1.4 0 001.4 17h14.2a1.4 1.4 0 001.4-1.4V1.4A1.4 1.4 0 0015.6 0H1.4zm7.1 1.5C4.916 1.5 2 4.26 2 7.652v.01c.258-.184.557-.32.887-.38C3.089 4.515 5.526 2.32 8.5 2.32c2.974 0 5.41 2.195 5.614 4.962.33.06.628.196.886.38v-.01C15 4.26 12.084 1.5 8.5 1.5zm3.467 5.742c-.717 0-1.3.552-1.3 1.23v3.337c0 .678.583 1.23 1.3 1.23.13 0 .253-.024.372-.057a1.29 1.29 0 01-1.239.878H9.72a1.295 1.295 0 00-1.22-.82c-.717 0-1.3.551-1.3 1.23 0 .678.583 1.23 1.3 1.23.564 0 1.04-.344 1.22-.82h1.38c1.195 0 2.167-.92 2.167-2.051V8.473c0-.679-.583-1.23-1.3-1.23zm-8.233 1.23c0-.678.584-1.23 1.3-1.23.717 0 1.3.552 1.3 1.23v3.337c0 .678-.583 1.23-1.3 1.23-.716 0-1.3-.552-1.3-1.23V8.473zm-.83-.345a1.93 1.93 0 00-.037.345v3.336c0 .119.016.233.037.346-.523-.16-.904-.62-.904-1.166V9.293c0-.547.381-1.006.904-1.166zm11.23.345c0-.118-.016-.232-.036-.345.522.16.903.619.903 1.166v1.695c0 .547-.381 1.006-.903 1.166a1.97 1.97 0 00.037-.346V8.472z" fill="#066EAE"/></svg>