<svg width="17" height="17" fill="none" xmlns="http://www.w3.org/2000/svg"><path fill-rule="evenodd" clip-rule="evenodd" d="M2 0a2 2 0 00-2 2v13a2 2 0 002 2h13a2 2 0 002-2V2a2 2 0 00-2-2H2zm8.625 2a.438.438 0 00-.438.438v2.624a.438.438 0 00.876 0V2.438A.438.438 0 0010.624 2zm1.313 4.375h2.624c.242 0 .438.196.438.438V9a.438.438 0 01-.272.405l-5.032 2.049a4.363 4.363 0 01-4.321 3.671A4.38 4.38 0 011 10.75a4.38 4.38 0 014.375-4.375h3.938c.241 0 .437.196.437.438v.437h1.13l.748-.747a.44.44 0 01.31-.128zM8.86 11.1c.016-.161.12-.3.27-.361l4.995-2.033V7.25h-2.006l-.747.747a.44.44 0 01-.31.128h-1.75a.438.438 0 01-.437-.438V7.25h-3.5c-1.93 0-3.5 1.57-3.5 3.5s1.57 3.5 3.5 3.5A3.493 3.493 0 008.86 11.1zm-5.672-.35a2.19 2.19 0 012.187-2.188 2.19 2.19 0 012.188 2.188 2.19 2.19 0 01-2.188 2.188 2.19 2.19 0 01-2.188-2.188zm.874 0c0 .724.59 1.313 1.313 1.313.724 0 1.313-.59 1.313-1.313 0-.724-.59-1.313-1.313-1.313-.724 0-1.313.59-1.313 1.313zm3.85-7.7L9.226 4.8a.437.437 0 11-.7.525l-1.312-1.75a.437.437 0 11.7-.525zm6.038-.087a.439.439 0 00-.612.087L12.024 4.8a.437.437 0 10.7.525l1.313-1.75a.437.437 0 00-.088-.613z" fill="#066EAE"/></svg>