<svg width="54" height="54" fill="none" xmlns="http://www.w3.org/2000/svg"><path fill-rule="evenodd" clip-rule="evenodd" d="M0 4a4 4 0 014-4h46a4 4 0 014 4v46a4 4 0 01-4 4H4a4 4 0 01-4-4V4zm39.478 16.727s1.018-.686 1.942-1.491c.923-.805 1.397-2.013 1.397-2.013s-.592.237-1.516.545c-.923.308-1.965.568-1.965.568s.97-.853 1.657-1.752c.687-.9.948-1.99.948-1.99s-.474.522-1.255.924c-.782.403-2.447.884-2.447.884s-2.273-3.915-7.577-1.705c-5.303 2.21-3.915 7.325-3.915 7.325s-2.715.126-7.197-1.705c-4.483-1.831-6.251-5.051-6.251-5.051s-.979 1.389-.79 4.356c.19 2.968 2.779 4.389 2.779 4.389s-.6.22-1.61-.095c-1.01-.316-1.579-.79-1.579-.79s-.379.948 1.136 3.442c1.516 2.494 4.262 3.251 4.262 3.251s-.157.064-1.136.064c-.979 0-1.99-.221-1.99-.221s.096 1.262 2.021 2.967c1.926 1.705 4.357 1.894 4.357 1.894s-1.326 1.137-3.599 1.895c-2.273.757-5.966.663-5.966.663s2.273 1.578 4.388 2.178c2.115.6 4.862 1.136 10.07.252 5.21-.884 10.103-4.924 12.376-10.134 2.273-5.208 1.46-8.65 1.46-8.65z" fill="#066EAE"/></svg>