<svg width="54" height="54" fill="none" xmlns="http://www.w3.org/2000/svg"><path fill-rule="evenodd" clip-rule="evenodd" d="M0 4a4 4 0 014-4h46a4 4 0 014 4v46a4 4 0 01-4 4H4a4 4 0 01-4-4V4zm42.461 32.419l-4.56-5.597a2.007 2.007 0 01-.164-2.264l4.865-8.26c.4-.68-.056-1.563-.808-1.563h-5.499c-.667 0-1.29.357-1.66.951l-4.684 7.54c-.235.379-.787.201-.787-.253V19.93c0-1.066-.808-1.929-1.805-1.929H20.85c-.23 0-.352.287-.202.472l.58.713a3.42 3.42 0 01.756 2.156V27.4c0 .354-.36.577-.645.396-.766-.484-2.118-1.622-3.525-4.147-.992-1.78-1.572-2.983-1.91-3.762-.327-.76-1.04-1.243-1.824-1.243H9.963c-.647 0-1.109.668-.92 1.327l.002.006c.026.09 1.577 5.322 5.03 10.193 3.482 4.913 6.577 8.081 10.532 8.081s4.213-1.194 4.213-2.617c0-1.424.172-1.975.86-1.975s1.419.551 3.139 2.158l1.523 1.514a3.11 3.11 0 002.192.92h5.146c.888 0 1.364-1.116.781-1.831z" fill="#066EAE"/></svg>