<svg width="128" height="47" fill="none" xmlns="http://www.w3.org/2000/svg"><g clip-path="url(#clip0)" fill-rule="evenodd" clip-rule="evenodd"><path d="M0 47h128.282V0H0v47z" fill="#010202"/><path d="M96.58 8.81v14.676h-4.896V8.81H49.289l-8.578 13.735V8.81h-9.208l-6.242 8.185-6.325-8.185H9.723v29.033h9.214V22.365l6.325 8.146 6.242-8.041v15.373h9.437l3.832-6.143h9.73v6.143h9.215V17.059h4.897v20.784h9.215V17.059h4.639v14.677h14.112v6.107h9.215V8.81H96.58zm-42.077 7.309v7.338h-4.581l4.581-7.338z" fill="url(#paint0_linear)"/><path d="M109.559 8.81v17.759l9.214-5.51V8.809h-9.214z" fill="url(#paint1_linear)"/><path d="M119.447 32.485c-.248-2.49-2.277-4.504-4.787-4.749-3.39-.334-6.217 2.47-5.881 5.836.249 2.489 2.278 4.503 4.787 4.749 3.391.333 6.217-2.472 5.881-5.836z" fill="url(#paint2_linear)"/></g><defs><linearGradient id="paint0_linear" x1=".407" y1="7.841" x2=".407" y2="43.046" gradientUnits="userSpaceOnUse"><stop stop-color="#FCDF6B"/><stop offset=".224" stop-color="#EFBD50"/><stop offset=".423" stop-color="#CD9638"/><stop offset=".559" stop-color="#AC772A"/><stop offset=".756" stop-color="#8E5C1E"/><stop offset=".892" stop-color="#83551A"/><stop offset="1" stop-color="#996520"/></linearGradient><linearGradient id="paint1_linear" x1="171.911" y1="251.557" x2="188.962" y2="12.104" gradientUnits="userSpaceOnUse"><stop/><stop offset="1" stop-color="#F0F0F0"/></linearGradient><linearGradient id="paint2_linear" x1="132.964" y1="32.071" x2="120.48" y2="1.13" gradientUnits="userSpaceOnUse"><stop stop-color="#F1F1F1"/><stop offset="1" stop-color="#BDBDBD"/></linearGradient><clipPath id="clip0"><path fill="#fff" d="M0 0h128v47H0z"/></clipPath></defs></svg>