<svg width="1719" height="778" fill="none" xmlns="http://www.w3.org/2000/svg"><path opacity=".5" d="M0 160.739c0-88.365 71.634-160 160-160h1399c88.37 0 160 71.635 160 160v457c0 88.366-71.63 160-160 160H160c-88.366 0-160-71.634-160-160v-457z" fill="#066EAE" fill-opacity=".1"/><path d="M1620 19h5v740h-5V19zM94 16h5v744h-5V16zM857 5h5v769h-5V5z" fill="#D77779"/><path d="M551 5h4v769h-4V5zm613 0h4v769h-4V5z" fill="#066EAE"/><path fill-rule="evenodd" clip-rule="evenodd" d="M916.858 772.739c-.968-13.646-6.863-26.549-16.688-36.293-10.781-10.694-25.41-16.707-40.67-16.707-15.26 0-29.889 6.013-40.67 16.707-9.825 9.744-15.72 22.647-16.688 36.293h114.716zm4.01 0c-.975-14.717-7.302-28.64-17.881-39.133-11.533-11.44-27.176-17.867-43.487-17.867-16.311 0-31.954 6.427-43.487 17.867-10.579 10.493-16.906 24.416-17.881 39.133a60.495 60.495 0 00-.132 4h123c0-1.338-.044-2.672-.132-4z" fill="#D77779"/><path fill-rule="evenodd" clip-rule="evenodd" d="M921 776.739c0-1.338-.044-2.672-.132-4l-.016-.235-.004-.048c-1.036-14.613-7.35-28.424-17.861-38.85-11.533-11.44-27.176-17.867-43.487-17.867-16.311 0-31.954 6.427-43.487 17.867a60.84 60.84 0 00-16.993 32.069 60.43 60.43 0 00-.871 6.824l-.017.24a60.495 60.495 0 00-.132 4h123zm-118.858-4c.095-1.341.238-2.675.427-4a56.816 56.816 0 0116.261-32.293c10.781-10.694 25.41-16.707 40.67-16.707 15.26 0 29.889 6.013 40.67 16.707a56.816 56.816 0 0116.478 33.99c.085.765.156 1.533.21 2.303H802.142zM916.858 6c-.968 13.646-6.863 26.55-16.688 36.294C889.389 52.987 874.76 59 859.5 59c-15.26 0-29.889-6.013-40.67-16.706-9.825-9.745-15.72-22.648-16.688-36.294h114.716zm4.01 0c-.975 14.718-7.302 28.64-17.881 39.133C891.454 56.573 875.811 63 859.5 63c-16.311 0-31.954-6.427-43.487-17.867C805.434 34.64 799.107 20.718 798.132 6A60.472 60.472 0 01798 2h123c0 1.339-.044 2.672-.132 4z" fill="#D77779"/><path fill-rule="evenodd" clip-rule="evenodd" d="M917.395 5.5h-115.79l.038.535c.976 13.767 6.924 26.784 16.835 36.614C829.353 53.435 844.108 59.5 859.5 59.5s30.147-6.065 41.022-16.851c9.911-9.83 15.859-22.847 16.835-36.614l.038-.535zm-115.216 1c1.075 13.461 6.946 26.168 16.651 35.794C829.611 52.987 844.24 59 859.5 59c15.26 0 29.889-6.013 40.67-16.706 9.705-9.626 15.576-22.333 16.651-35.794.013-.167.026-.333.037-.5H802.142c.011.167.024.333.037.5zm118.19-.533c-.967 14.596-7.241 28.404-17.734 38.812C891.196 56.124 875.68 62.5 859.5 62.5s-31.696-6.375-43.135-17.721c-10.493-10.408-16.767-24.216-17.734-38.812a60.553 60.553 0 01-.129-3.467h121.996a60.553 60.553 0 01-.129 3.467zm.629-3.467a60.793 60.793 0 01-.13 3.5c-.975 14.718-7.302 28.64-17.881 39.133C891.454 56.573 875.811 63 859.5 63c-16.311 0-31.954-6.427-43.487-17.867C805.434 34.64 799.107 20.718 798.132 6A60.793 60.793 0 01798 2h123l-.002.5z" fill="#D77779"/><path fill-rule="evenodd" clip-rule="evenodd" d="M1559 6.74H160C74.948 6.74 6 75.686 6 160.738v457c0 85.052 68.948 154 154 154h1399c85.05 0 154-68.948 154-154v-457c0-85.052-68.95-154-154-154zm-1399-6C71.634.74 0 72.373 0 160.738v457c0 88.366 71.634 160 160 160h1399c88.37 0 160-71.634 160-160v-457c0-88.365-71.63-160-160-160H160z" fill="#066EAE"/><path fill-rule="evenodd" clip-rule="evenodd" d="M224.493 75.709v10.88c-47.534 7.626-83.848 48.827-83.848 98.511 0 49.683 36.314 90.885 83.848 98.51v10.881h3v-10.446c4.231.547 8.546.829 12.926.829 4.38 0 8.694-.282 12.925-.829v10.446h3V283.61c47.534-7.625 83.849-48.827 83.849-98.51 0-49.684-36.315-90.885-83.849-98.51V75.709h-3v10.446a100.77 100.77 0 00-12.925-.83c-4.38 0-8.695.283-12.926.83V75.71h-3zm15.926 205.165c52.894 0 95.774-42.88 95.774-95.774 0-52.895-42.88-95.774-95.774-95.774-52.895 0-95.774 42.879-95.774 95.774 0 52.894 42.879 95.774 95.774 95.774zm-15.926-104.487v-23.744h3v26.744h-30.35v-3h27.35zm0 41.17v-23.745h-27.35v-3h30.35v26.745h-3zm31.851 0v-23.745h27.35v-3h-30.35v26.745h3zm0-64.914v23.744h27.35v3h-30.35v-26.744h3zm-15.925 40.872a8.415 8.415 0 008.414-8.415 8.415 8.415 0 10-8.414 8.415zM1462.66 75.709v10.88c-47.54 7.626-83.85 48.827-83.85 98.511 0 49.683 36.31 90.885 83.85 98.51v10.881h3v-10.446c4.23.547 8.54.829 12.92.829 4.38 0 8.69-.282 12.93-.829v10.446h3V283.61c47.53-7.625 83.84-48.827 83.84-98.51 0-49.684-36.31-90.885-83.84-98.51V75.709h-3v10.446a100.9 100.9 0 00-12.93-.83c-4.38 0-8.69.283-12.92.83V75.71h-3zm15.92 205.165c52.9 0 95.77-42.88 95.77-95.774 0-52.895-42.87-95.774-95.77-95.774-52.89 0-95.77 42.879-95.77 95.774 0 52.894 42.88 95.774 95.77 95.774zm-15.92-104.487v-23.744h3v26.744h-30.35v-3h27.35zm0 41.17v-23.745h-27.35v-3h30.35v26.745h-3zm31.85 0v-23.745h27.35v-3h-30.35v26.745h3zm0-64.914v23.744h27.35v3h-30.35v-26.744h3zm-15.93 40.872c4.65 0 8.42-3.768 8.42-8.415 0-4.647-3.77-8.415-8.42-8.415a8.41 8.41 0 00-8.41 8.415 8.41 8.41 0 008.41 8.415zM224.493 484.625v10.88c-47.534 7.625-83.848 48.827-83.848 98.51 0 49.684 36.314 90.886 83.848 98.511v10.88h3V692.96c4.231.547 8.546.83 12.926.83 4.38 0 8.694-.283 12.925-.83v10.446h3v-10.88c47.534-7.625 83.849-48.827 83.849-98.511 0-49.683-36.315-90.885-83.849-98.51v-10.88h-3v10.446a100.77 100.77 0 00-12.925-.83c-4.38 0-8.695.283-12.926.83v-10.446h-3zm15.926 205.165c52.894 0 95.774-42.88 95.774-95.775 0-52.894-42.88-95.774-95.774-95.774-52.895 0-95.774 42.88-95.774 95.774 0 52.895 42.879 95.775 95.774 95.775zm-15.926-104.487v-23.744h3v26.744h-30.35v-3h27.35zm0 41.169v-23.744h-27.35v-3h30.35v26.744h-3zm31.851 0v-23.744h27.35v-3h-30.35v26.744h3zm0-64.913v23.744h27.35v3h-30.35v-26.744h3zm-15.925 40.871a8.414 8.414 0 008.414-8.415 8.414 8.414 0 00-8.414-8.414 8.414 8.414 0 100 16.829zM1462.66 484.625v10.88c-47.54 7.625-83.85 48.827-83.85 98.51 0 49.684 36.31 90.886 83.85 98.511v10.88h3V692.96a100.954 100.954 0 0025.85 0v10.446h3v-10.88c47.53-7.625 83.84-48.827 83.84-98.511 0-49.683-36.31-90.885-83.84-98.51v-10.88h-3v10.446a100.954 100.954 0 00-25.85 0v-10.446h-3zm15.92 205.165c52.9 0 95.77-42.88 95.77-95.775 0-52.894-42.87-95.774-95.77-95.774-52.89 0-95.77 42.88-95.77 95.774 0 52.895 42.88 95.775 95.77 95.775zm-15.92-104.487v-23.744h3v26.744h-30.35v-3h27.35zm0 41.169v-23.744h-27.35v-3h30.35v26.744h-3zm31.85 0v-23.744h27.35v-3h-30.35v26.744h3zm0-64.913v23.744h27.35v3h-30.35v-26.744h3zm-15.93 40.871c4.65 0 8.42-3.767 8.42-8.415 0-4.647-3.77-8.414-8.42-8.414a8.409 8.409 0 00-8.41 8.414 8.409 8.409 0 008.41 8.415z" fill="#D77779"/><path d="M599 209.239a8.5 8.5 0 11-17 0 8.5 8.5 0 0117 0z" fill="#D77779"/><path fill-rule="evenodd" clip-rule="evenodd" d="M955.275 389.457c0 52.894-42.88 95.774-95.774 95.774-52.895 0-95.774-42.88-95.774-95.774 0-52.895 42.879-95.774 95.774-95.774 52.894 0 95.774 42.879 95.774 95.774zm4 0c0 55.103-44.671 99.774-99.774 99.774-55.104 0-99.774-44.671-99.774-99.774 0-55.104 44.67-99.774 99.774-99.774 55.103 0 99.774 44.67 99.774 99.774zm-99.774 8.414a8.414 8.414 0 008.414-8.414 8.414 8.414 0 10-8.414 8.414z" fill="#066EAE"/><path d="M1137 209.239c0 4.695-3.81 8.5-8.5 8.5-4.69 0-8.5-3.805-8.5-8.5 0-4.694 3.81-8.5 8.5-8.5 4.69 0 8.5 3.806 8.5 8.5zm-538 360.5c0 4.419-3.806 8-8.5 8s-8.5-3.581-8.5-8c0-4.418 3.806-8 8.5-8s8.5 3.582 8.5 8zm538 0c0 4.419-3.81 8-8.5 8-4.69 0-8.5-3.581-8.5-8 0-4.418 3.81-8 8.5-8 4.69 0 8.5 3.582 8.5 8z" fill="#D77779"/><path fill-rule="evenodd" clip-rule="evenodd" d="M128 372.739c0-9.389-7.611-17-17-17H90v5H78a8 8 0 00-8 8v28a8 8 0 008 8h12v5h21c9.389 0 17-7.611 17-17v-20zm-40-8H78a4 4 0 00-4 4v28a4 4 0 004 4h10v-36zm1503 8c0-9.389 7.61-17 17-17h21v5h12a8 8 0 018 8v28c0 4.419-3.58 8-8 8h-12v5h-21c-9.39 0-17-7.611-17-17v-20zm40-8h10a4 4 0 014 4v28a4 4 0 01-4 4h-10v-36z" fill="#066EAE"/></svg>