<svg width="206" height="110" fill="none" xmlns="http://www.w3.org/2000/svg"><g clip-path="url(#clip0)" fill="#000973"><path d="M67.3 47.6c-9.278 0-16.8-7.522-16.8-16.8a16.8 16.8 0 1116.8 16.8zm0-25.555c-5.573 0-10.447 4.84-9.562 10.362 5.15 1.222 8.735 5.604 9.562 12.659.83-7.055 4.416-11.437 9.566-12.66.885-5.521-3.993-10.353-9.566-10.36zM47.7 37.398c0-13.386-19.27-8.155-19.27-13.84 0-1.876 1.97-2.976 4.56-2.976 2.852 0 5.33.999 5.33 4.272h8.376C46.696 18.322 40.958 14 32.924 14c-7.446 0-13.228 3.495-13.228 9.709 0 13.32 18.756 7.872 18.756 14.206 0 2.07-1.778 3.106-4.63 3.106-3.17 0-5.602-1.421-5.602-4.683H19C19 43.289 26.026 47.6 33.897 47.6c7.87 0 13.803-3.814 13.803-10.214m139.3.73h-16.022l15.176-14.345-.011-9.071h-24.04v7.384h15.066l-15.369 14.3V45.5h25.169l.031-7.384zm-74.864-7.363c0 4.877-3.704 8.45-8.145 8.45-4.373 0-8.144-3.573-8.144-8.45 0-4.877 3.77-8.45 8.144-8.45 4.441 0 8.145 3.573 8.145 8.45zm-.637-15.42v3.373c-2.32-2.842-5.379-4.006-8.701-4.006-8.457 0-15.198 6.419-15.198 16.053s6.74 16.053 15.198 16.053c3.322 0 6.381-1.157 8.701-4.005v4.29c0 4.927-3.443 7.815-7.308 7.815-3.707.074-6.865-2.64-7.296-6.269h-8.849c1.072 8.867 7.542 13.663 16.329 13.663 8.97 0 16.125-5.918 16.125-16.057v-30.91h-9.001zM147.9 42.27c-2.32 2.788-5.376 3.93-8.702 3.93-8.46 0-15.198-6.298-15.198-15.75s6.758-15.75 15.198-15.75c3.326 0 6.382 1.135 8.702 3.93v-3.31h9v30.26h-9v-3.31zm-15.667-11.82c0 4.785 3.768 8.291 8.147 8.291 4.441 0 8.146-3.506 8.146-8.291s-3.705-8.291-8.146-8.291c-4.379 0-8.147 3.506-8.147 8.291z"/></g><path d="M59.324 88.723h-2.949V94h-.48v-5.688h3.43v.41zm4.121 2.55h-2.66v2.32h3.059V94h-3.54v-5.688h3.52v.41h-3.039v2.145h2.66v.406zM69.075 94h-.485v-2.727h-3.25V94h-.48v-5.688h.48v2.555h3.25v-2.555h.484V94zm4.59-2.727h-2.661v2.32h3.058V94h-3.539v-5.688h3.52v.41h-3.04v2.145h2.661v.406zm1.894.41V94h-.48v-5.688h1.937c.59 0 1.057.151 1.398.454.344.302.516.717.516 1.246 0 .534-.166.946-.496 1.238-.328.29-.805.434-1.43.434h-1.445zm0-.406h1.457c.466 0 .821-.11 1.066-.332.245-.221.367-.53.367-.925 0-.394-.122-.706-.367-.938-.242-.234-.587-.354-1.035-.36h-1.488v2.555zm6.98 1.13h-2.582L79.371 94h-.504l2.152-5.688h.458L83.629 94h-.5l-.59-1.594zm-2.433-.41h2.28l-1.14-3.099-1.14 3.098zm8.601-3.684V94h-.48v-5.277h-2.403l-.133 2.351c-.052.841-.132 1.453-.242 1.836-.107.38-.26.656-.46.828-.199.17-.468.257-.81.262h-.202v-.406l.156-.004c.268-.013.47-.098.605-.254.136-.156.24-.409.313-.758.075-.351.134-.893.176-1.625l.14-2.64h3.34zm1.906 2.468h1.41c.389 0 .724.065 1.008.196.284.127.5.312.649.554.15.24.226.524.226.852 0 .502-.168.898-.504 1.187-.336.287-.8.43-1.394.43h-1.875v-5.688h.48v2.47zm0 .41v2.403h1.406c.44 0 .784-.108 1.032-.325.247-.218.37-.516.37-.894 0-.36-.119-.644-.359-.856-.24-.213-.575-.322-1.007-.328h-1.442zM99.27 94h-.484v-2.727h-3.25V94h-.48v-5.688h.48v2.555h3.25v-2.555h.484V94zm1.938-3.219h1.41a2.4 2.4 0 011.008.196c.284.127.5.312.648.554.151.24.227.524.227.852 0 .502-.168.898-.504 1.187-.336.287-.801.43-1.394.43h-1.875v-5.688h.48v2.47zm0 .41v2.403h1.406c.44 0 .784-.108 1.032-.325.247-.218.371-.516.371-.894 0-.36-.12-.644-.36-.856-.239-.213-.575-.322-1.008-.328h-1.441zm4.71 2.809h-.48v-5.688h.48V94zm5.219-5.688h.48V94h-.48v-4.867L107.898 94h-.484v-5.688h.484v4.864l3.239-4.864zm-.461-1.398a.93.93 0 01-.309.727c-.203.184-.476.277-.82.277-.339 0-.612-.091-.82-.274a.934.934 0 01-.309-.73h.398c0 .216.064.382.192.496.13.115.31.172.539.172.229 0 .407-.06.535-.18a.631.631 0 00.195-.488h.399zM119.223 94h-.481v-5.277h-3.219V94h-.48v-5.688h4.18V94zm4.535-1.594h-2.582L120.59 94h-.504l2.152-5.688h.457L124.848 94h-.5l-.59-1.594zm-2.434-.41h2.281l-1.14-3.098-1.141 3.098zm4.844-.312V94h-.48v-5.688h1.937c.591 0 1.057.151 1.398.454.344.302.516.717.516 1.246 0 .534-.165.946-.496 1.238-.328.29-.805.434-1.43.434h-1.445zm0-.407h1.457c.466 0 .822-.11 1.066-.332.245-.221.368-.53.368-.925 0-.394-.123-.706-.368-.938-.242-.234-.587-.354-1.035-.36h-1.488v2.555zm8.309-2.554h-1.95V94h-.48v-5.277h-1.945v-.41h4.375v.41zM139.613 94h-.484v-2.727h-3.25V94h-.481v-5.688h.481v2.555h3.25v-2.555h.484V94zm4.59-2.727h-2.66v2.32h3.059V94h-3.54v-5.688h3.52v.41h-3.039v2.145h2.66v.406zm1.895.41V94h-.481v-5.688h1.938c.591 0 1.057.151 1.398.454.344.302.516.717.516 1.246 0 .534-.166.946-.496 1.238-.328.29-.805.434-1.43.434h-1.445zm0-.406h1.457c.466 0 .821-.11 1.066-.332.245-.221.367-.53.367-.925 0-.394-.122-.706-.367-.938-.242-.234-.587-.354-1.035-.36h-1.488v2.555z" fill="gray"/><defs><clipPath id="clip0"><path fill="#fff" transform="translate(19 14)" d="M0 0h168v48.3H0z"/></clipPath></defs></svg>