<svg width="206" height="110" fill="none" xmlns="http://www.w3.org/2000/svg"><path d="M47.664 88.313h.48V94h-.48v-4.867L44.426 94h-.485v-5.688h.485v4.864l3.238-4.864zM53.82 94h-.484v-2.727h-3.25V94h-.48v-5.688h.48v2.555h3.25v-2.555h.484V94zm3.942-5.11h.133c.44.003.837.1 1.19.294.355.192.631.462.83.808.197.344.296.727.296 1.149 0 .424-.098.808-.293 1.152-.195.344-.47.613-.824.809a2.465 2.465 0 01-1.188.3h-.144v.832h-.469v-.832h-.11c-.447 0-.85-.095-1.206-.285a2.107 2.107 0 01-.832-.808 2.297 2.297 0 01-.297-1.16c0-.425.099-.81.297-1.157.2-.349.479-.62.835-.812a2.49 2.49 0 011.204-.29h.109v-.812h.469v.813zm0 .4v3.718h.113c.568 0 1.02-.17 1.36-.512.338-.341.507-.793.507-1.355 0-.534-.157-.97-.472-1.305-.316-.336-.737-.517-1.266-.543l-.242-.004zm-.575 0c-.57 0-1.024.168-1.363.507-.338.338-.508.789-.508 1.351 0 .545.158.984.473 1.317.315.333.738.513 1.27.539l.234.004v-3.719h-.105zm8.231 2.175c0 .523-.091.983-.274 1.379-.18.396-.437.7-.773.914-.336.213-.724.32-1.164.32-.664 0-1.2-.237-1.61-.71-.408-.477-.613-1.12-.613-1.927v-.585c0-.519.091-.977.274-1.375a2.1 2.1 0 01.781-.922 2.096 2.096 0 011.16-.325c.438 0 .823.106 1.157.317.335.21.595.509.777.894.182.386.277.832.285 1.34v.68zm-.48-.617c0-.685-.155-1.222-.465-1.61-.31-.388-.735-.582-1.274-.582-.528 0-.95.196-1.265.586-.313.388-.47.931-.47 1.63v.593c0 .674.157 1.21.47 1.605.312.394.737.59 1.273.59.544 0 .969-.194 1.274-.582.304-.39.457-.934.457-1.629v-.601zm2.171.836V94h-.48v-5.688h1.937c.592 0 1.058.151 1.399.454.344.302.516.717.516 1.246 0 .534-.166.946-.497 1.238-.328.29-.804.434-1.43.434H67.11zm0-.407h1.457c.467 0 .822-.11 1.067-.332.245-.221.367-.53.367-.925 0-.394-.122-.706-.367-.938-.242-.234-.587-.354-1.035-.36h-1.489v2.555zm5.086-2.965l2.098 5.02 2.105-5.02h.641V94h-.48v-2.477l.039-2.539L74.48 94h-.372L72 89.004l.04 2.504V94h-.481v-5.688h.636zm9.426 4.094H79.04L78.453 94h-.504l2.153-5.688h.457L82.71 94h-.5l-.59-1.594zm-2.433-.41h2.28l-1.14-3.098-1.14 3.098zm4.343-3.683h.485v5.28h3.218v-5.28h.48v5.273h.56l-.036 1.785h-.445V94h-4.262v-5.688zm9.469 0h.48V94H93v-4.867L89.762 94h-.485v-5.688h.485v4.864L93 88.312zm6.144 3.152c0 .523-.09.983-.273 1.379-.18.396-.437.7-.773.914-.336.213-.724.32-1.164.32-.665 0-1.2-.237-1.61-.71-.409-.477-.613-1.12-.613-1.927v-.585c0-.519.091-.977.273-1.375a2.1 2.1 0 01.782-.922 2.097 2.097 0 011.16-.325c.437 0 .823.106 1.156.317.336.21.595.509.777.894.183.386.278.832.285 1.34v.68zm-.48-.617c0-.685-.155-1.222-.465-1.61-.31-.388-.734-.582-1.273-.582-.529 0-.95.196-1.266.586-.312.388-.469.931-.469 1.63v.593c0 .674.157 1.21.47 1.605.312.394.736.59 1.273.59.544 0 .968-.194 1.273-.582.305-.39.457-.934.457-1.629v-.601zM104.57 94h-.484v-2.727h-3.25V94h-.481v-5.688h.481v2.555h3.25v-2.555h.484V94zm5.664 0h-.484v-2.727h-3.25V94h-.48v-5.688h.48v2.555h3.25v-2.555h.484V94zm1.938-3.219h1.41a2.4 2.4 0 011.008.196c.284.127.5.312.648.554.151.24.227.524.227.852 0 .502-.168.898-.504 1.187-.336.287-.801.43-1.395.43h-1.875v-5.688h.481v2.47zm0 .41v2.403h1.406c.44 0 .784-.108 1.031-.325.248-.218.371-.516.371-.894 0-.36-.119-.644-.359-.856-.239-.213-.575-.322-1.008-.328h-1.441zM116.883 94h-.481v-5.688h.481V94zm5.219-5.688h.48V94h-.48v-4.867L118.863 94h-.484v-5.688h.484v4.864l3.239-4.864zm-.461-1.398a.93.93 0 01-.309.727c-.203.184-.477.277-.82.277-.339 0-.612-.091-.821-.274a.937.937 0 01-.308-.73h.398c0 .216.064.382.192.496.13.115.31.172.539.172.229 0 .407-.06.535-.18a.631.631 0 00.195-.488h.399zM130.188 94h-.481v-5.277h-3.219V94h-.48v-5.688h4.18V94zm4.535-1.594h-2.582L131.555 94h-.504l2.152-5.688h.457L135.812 94h-.5l-.589-1.594zm-2.434-.41h2.281l-1.14-3.098-1.141 3.098zm4.844-.312V94h-.481v-5.688h1.938c.591 0 1.057.151 1.398.454.344.302.516.717.516 1.246 0 .534-.165.946-.496 1.238-.328.29-.805.434-1.43.434h-1.445zm0-.407h1.457c.466 0 .821-.11 1.066-.332.245-.221.367-.53.367-.925 0-.394-.122-.706-.367-.938-.242-.234-.587-.354-1.035-.36h-1.488v2.555zm8.308-2.554h-1.949V94h-.48v-5.277h-1.946v-.41h4.375v.41zM150.578 94h-.484v-2.727h-3.25V94h-.481v-5.688h.481v2.555h3.25v-2.555h.484V94zm4.59-2.727h-2.66v2.32h3.058V94h-3.539v-5.688h3.52v.41h-3.039v2.145h2.66v.406zm1.894.41V94h-.48v-5.688h1.938c.591 0 1.057.151 1.398.454.344.302.516.717.516 1.246 0 .534-.166.946-.496 1.238-.329.29-.805.434-1.43.434h-1.446zm0-.406h1.458c.466 0 .821-.11 1.066-.332.245-.221.367-.53.367-.925 0-.394-.122-.706-.367-.938-.242-.234-.587-.354-1.035-.36h-1.489v2.555z" fill="gray"/><g clip-path="url(#clip0)"><path d="M157.98 49.196l-1.49 1.265-1.498 8.502.997 1.21h5.803l1.487-1.254.383-2.171h-2.541l-.26 1.474h-3.08l1.246-7.068h3.08l-.196 1.115h2.539l.328-1.859-1.003-1.214h-5.795zm-65.462 0h-5.795l-1.49 1.262-.319 1.811h2.658l.197-1.115h3.08l-.474 2.69h-2.036l-.351 1.99h2.035l-.42 2.388h-3.08l.259-1.474h-2.657l-.392 2.219.997 1.208h5.802l1.488-1.255 1.499-8.501-1-1.223zm15.838 1.957h3.081l-.197 1.115h2.54l.328-1.859-1.004-1.213h-5.795l-1.489 1.265-1.499 8.502.997 1.21h5.803l1.487-1.254.382-2.171h-2.54l-.26 1.474h-3.08l1.246-7.069zm8.506-1.957l-.503.426-1.86 10.552h2.657l1.591-9.02h3.08l-1.59 9.02h2.54l1.87-10.6-.318-.378h-7.467zm17.082.002h-6.634l-.505.427-1.86 10.548h2.657l.531-3.009h4.351l1.493-1.267.967-5.484-1-1.215zm-2.375 5.956h-3.08l.704-3.998h3.08l-.704 3.998zm7.182.679h2.86l.352-1.99h-2.861l.474-2.69h4.641l.345-1.957h-6.033l-1.489 1.265-1.498 8.502.996 1.21h6.088l.345-1.953h-4.641l.421-2.387zm-34.345-6.644h-2.658l-2.664 4.65h-1.143l.82-4.646h-2.657l-1.937 10.976h2.658l.766-4.339h1.178l1.007 4.342h2.864l-1.435-5.393 3.201-5.59zm47.288 3.079h2.54l.329-1.859-1.004-1.213h-5.795l-1.489 1.265-1.499 8.502.997 1.21h5.802l1.487-1.254.382-2.171h-2.54l-.26 1.474h-3.08l1.246-7.068h3.08l-.196 1.114zm-53.878-7.825l2.441-2.062.627-3.579h-4.196l-.424 2.404H91.29l2.024-11.48h4.973l-.321 1.822h4.197l.538-3.067-1.651-1.998h-9.478L89.13 28.56l-2.45 13.89 1.643 1.993h9.493zm43.71 0l.866-4.908h7.087l2.449-2.08 1.581-8.965-1.652-1.998h-10.841l-.837.707-3.041 17.246 4.388-.002zm2.594-14.71h4.972l-1.141 6.474h-4.973l1.142-6.474zm13.145-3.239l-.836.707-.449 2.537h4.694l-2.594 14.706h4.361l2.594-14.706h4.503l.459-2.609-.537-.635h-12.195zm-49.626 17.949l2.595-14.716h4.973l-2.595 14.716h4.198l3.055-17.323-.538-.636h-12.2l-.837.708-3.042 17.251h4.391zm14.521 0h9.489l2.439-2.062 2.451-13.895-1.652-1.999h-9.477l-2.443 2.078-2.449 13.89 1.642 1.988zm4.99-14.713h4.972L130.1 41.204h-4.974l2.024-11.474z" fill="#000"/><path d="M77.387 22.527l-3.974-4.824-.58-.703H43.53l-.282 1.596-6.987 39.629L36 59.706l1.372.616 14.602 6.55.736.329.017-.006.736-.284 17-6.583 1.016-.394.189-1.076 6.13-34.77.155-.876-.565-.684z" fill="#E83B35"/><path d="M62.863 38.839a8.002 8.002 0 01-.336-.09 7.618 7.618 0 01-1.099-.438 9.876 9.876 0 01-.48-.248 8.18 8.18 0 01-.158 1.451 2.88 2.88 0 01-2.906-1.23 2.177 2.177 0 01-.27-.85 2.423 2.423 0 010-.474 3.465 3.465 0 01.645-1.665 9.73 9.73 0 00-3.264.591 14.434 14.434 0 00-3.978 2.23c-.388.299-.762.618-1.127.95.941.106 1.875.266 2.798.48a24.463 24.463 0 00-9.833 9.618l-.01.018.015-.007a26.28 26.28 0 019.054-2.29 25.728 25.728 0 00-5.606 6.883c.63.55 1.31 1.043 2.028 1.472a20.6 20.6 0 014.675-1.747 17.174 17.174 0 019.87.222 10.484 10.484 0 002.502-4.182 15.36 15.36 0 01-3.228-4.197 11.591 11.591 0 01-.706-1.682c.118.064.238.125.359.18.917.42 1.892.698 2.893.827a10.06 10.06 0 00.761-2.91 5.737 5.737 0 00-.375-2.83 5.065 5.065 0 01-2.224-.082zm2.317-2.075c-.42.066-.846.08-1.27.044.295.136.627.29.963.49.714.41 1.33.97 1.807 1.642a3.665 3.665 0 00-.27-2.6 3.183 3.183 0 01-1.23.424zm-2.326-.172a4.146 4.146 0 00-.066-.228l-.011-.034-.034.007a.685.685 0 01-.605-1.172l.023-.023-.04-.059-.043-.06a4.721 4.721 0 00-.206-.257 5.022 5.022 0 00-.273-.303l-.022-.021-.026.016a.865.865 0 00-.09.063l-.03.025a1.2 1.2 0 00-.244.249 1.252 1.252 0 00.176 1.667l.028.026a1.255 1.255 0 00.827.31c.216 0 .429-.056.618-.161l.026-.015-.008-.03zm-7.42-5.934c.342.348.683.695 1.027 1.036.398.394.807.774 1.21 1.12l.172.146a2.69 2.69 0 011.68-.448c.468.029.926.146 1.35.344.136.063.27.132.401.21l-.047-.152a21.81 21.81 0 00-.191-.58l-.102-.292a6.34 6.34 0 011.77.987c.043.032.084.068.125.102.09.068.172.136.256.21l.297.27c.097.09.195.196.29.298.068.07.137.143.203.218.036.04.07.084.105.123.09.103.179.207.26.315a8.726 8.726 0 001.725-.209 8.278 8.278 0 002.253-.872 14.253 14.253 0 00-1.268-4.825 13.923 13.923 0 00-.815-1.434 2.274 2.274 0 00-.686.538 3.543 3.543 0 00-.532.849v.006l-.08.2-.004.013-.07-.11-.075-.098a31.37 31.37 0 00-4.428-4.634c-.17.4-.269.83-.29 1.265-.022.401-.008.803.043 1.202l.024.09-.012-.007c-.04-.024-.083-.045-.125-.068a47.192 47.192 0 00-4.908-2.143 4.588 4.588 0 00.175 1.767c.217.757.521 1.485.907 2.172.18.327.376.646.58.96a5.226 5.226 0 00-1.907.707c.226.251.456.487.687.724z" fill="#fff"/></g><defs><clipPath id="clip0"><path fill="#fff" transform="translate(36 17)" d="M0 0h134v50.2H0z"/></clipPath></defs></svg>