<svg width="206" height="110" fill="none" xmlns="http://www.w3.org/2000/svg"><path d="M47.664 88.313h.48V94h-.48v-4.867L44.426 94h-.485v-5.688h.485v4.864l3.238-4.864zM53.82 94h-.484v-2.727h-3.25V94h-.48v-5.688h.48v2.555h3.25v-2.555h.484V94zm3.942-5.11h.133c.44.003.837.1 1.19.294.355.192.631.462.83.808.197.344.296.727.296 1.149 0 .424-.098.808-.293 1.152-.195.344-.47.613-.824.809a2.465 2.465 0 01-1.188.3h-.144v.832h-.469v-.832h-.11c-.447 0-.85-.095-1.206-.285a2.107 2.107 0 01-.832-.808 2.297 2.297 0 01-.297-1.16c0-.425.099-.81.297-1.157.2-.349.479-.62.835-.812a2.49 2.49 0 011.204-.29h.109v-.812h.469v.813zm0 .4v3.718h.113c.568 0 1.02-.17 1.36-.512.338-.341.507-.793.507-1.355 0-.534-.157-.97-.472-1.305-.316-.336-.737-.517-1.266-.543l-.242-.004zm-.575 0c-.57 0-1.024.168-1.363.507-.338.338-.508.789-.508 1.351 0 .545.158.984.473 1.317.315.333.738.513 1.27.539l.234.004v-3.719h-.105zm8.231 2.175c0 .523-.091.983-.274 1.379-.18.396-.437.7-.773.914-.336.213-.724.32-1.164.32-.664 0-1.2-.237-1.61-.71-.408-.477-.613-1.12-.613-1.927v-.585c0-.519.091-.977.274-1.375a2.1 2.1 0 01.781-.922 2.096 2.096 0 011.16-.325c.438 0 .823.106 1.157.317.335.21.595.509.777.894.182.386.277.832.285 1.34v.68zm-.48-.617c0-.685-.155-1.222-.465-1.61-.31-.388-.735-.582-1.274-.582-.528 0-.95.196-1.265.586-.313.388-.47.931-.47 1.63v.593c0 .674.157 1.21.47 1.605.312.394.737.59 1.273.59.544 0 .969-.194 1.274-.582.304-.39.457-.934.457-1.629v-.601zm2.171.836V94h-.48v-5.688h1.937c.592 0 1.058.151 1.399.454.344.302.516.717.516 1.246 0 .534-.166.946-.497 1.238-.328.29-.804.434-1.43.434H67.11zm0-.407h1.457c.467 0 .822-.11 1.067-.332.245-.221.367-.53.367-.925 0-.394-.122-.706-.367-.938-.242-.234-.587-.354-1.035-.36h-1.489v2.555zm5.086-2.965l2.098 5.02 2.105-5.02h.641V94h-.48v-2.477l.039-2.539L74.48 94h-.372L72 89.004l.04 2.504V94h-.481v-5.688h.636zm9.426 4.094H79.04L78.453 94h-.504l2.153-5.688h.457L82.71 94h-.5l-.59-1.594zm-2.433-.41h2.28l-1.14-3.098-1.14 3.098zm4.343-3.683h.485v5.28h3.218v-5.28h.48v5.273h.56l-.036 1.785h-.445V94h-4.262v-5.688zm9.469 0h.48V94H93v-4.867L89.762 94h-.485v-5.688h.485v4.864L93 88.312zm6.144 3.152c0 .523-.09.983-.273 1.379-.18.396-.437.7-.773.914-.336.213-.724.32-1.164.32-.665 0-1.2-.237-1.61-.71-.409-.477-.613-1.12-.613-1.927v-.585c0-.519.091-.977.273-1.375a2.1 2.1 0 01.782-.922 2.097 2.097 0 011.16-.325c.437 0 .823.106 1.156.317.336.21.595.509.777.894.183.386.278.832.285 1.34v.68zm-.48-.617c0-.685-.155-1.222-.465-1.61-.31-.388-.734-.582-1.273-.582-.529 0-.95.196-1.266.586-.312.388-.469.931-.469 1.63v.593c0 .674.157 1.21.47 1.605.312.394.736.59 1.273.59.544 0 .968-.194 1.273-.582.305-.39.457-.934.457-1.629v-.601zM104.57 94h-.484v-2.727h-3.25V94h-.481v-5.688h.481v2.555h3.25v-2.555h.484V94zm5.664 0h-.484v-2.727h-3.25V94h-.48v-5.688h.48v2.555h3.25v-2.555h.484V94zm1.938-3.219h1.41a2.4 2.4 0 011.008.196c.284.127.5.312.648.554.151.24.227.524.227.852 0 .502-.168.898-.504 1.187-.336.287-.801.43-1.395.43h-1.875v-5.688h.481v2.47zm0 .41v2.403h1.406c.44 0 .784-.108 1.031-.325.248-.218.371-.516.371-.894 0-.36-.119-.644-.359-.856-.239-.213-.575-.322-1.008-.328h-1.441zM116.883 94h-.481v-5.688h.481V94zm5.219-5.688h.48V94h-.48v-4.867L118.863 94h-.484v-5.688h.484v4.864l3.239-4.864zm-.461-1.398a.93.93 0 01-.309.727c-.203.184-.477.277-.82.277-.339 0-.612-.091-.821-.274a.937.937 0 01-.308-.73h.398c0 .216.064.382.192.496.13.115.31.172.539.172.229 0 .407-.06.535-.18a.631.631 0 00.195-.488h.399zM130.188 94h-.481v-5.277h-3.219V94h-.48v-5.688h4.18V94zm4.535-1.594h-2.582L131.555 94h-.504l2.152-5.688h.457L135.812 94h-.5l-.589-1.594zm-2.434-.41h2.281l-1.14-3.098-1.141 3.098zm4.844-.312V94h-.481v-5.688h1.938c.591 0 1.057.151 1.398.454.344.302.516.717.516 1.246 0 .534-.165.946-.496 1.238-.328.29-.805.434-1.43.434h-1.445zm0-.407h1.457c.466 0 .821-.11 1.066-.332.245-.221.367-.53.367-.925 0-.394-.122-.706-.367-.938-.242-.234-.587-.354-1.035-.36h-1.488v2.555zm8.308-2.554h-1.949V94h-.48v-5.277h-1.946v-.41h4.375v.41zM150.578 94h-.484v-2.727h-3.25V94h-.481v-5.688h.481v2.555h3.25v-2.555h.484V94zm4.59-2.727h-2.66v2.32h3.058V94h-3.539v-5.688h3.52v.41h-3.039v2.145h2.66v.406zm1.894.41V94h-.48v-5.688h1.938c.591 0 1.057.151 1.398.454.344.302.516.717.516 1.246 0 .534-.166.946-.496 1.238-.329.29-.805.434-1.43.434h-1.446zm0-.406h1.458c.466 0 .821-.11 1.066-.332.245-.221.367-.53.367-.925 0-.394-.122-.706-.367-.938-.242-.234-.587-.354-1.035-.36h-1.489v2.555z" fill="gray"/><g clip-path="url(#clip0)"><path d="M73 38.75c0-13.553 0-20.33 4.21-24.54C81.42 10 88.197 10 101.75 10h2.5c13.553 0 20.329 0 24.54 4.21C133 18.42 133 25.197 133 38.75v2.5c0 13.553 0 20.33-4.21 24.54C124.579 70 117.803 70 104.25 70h-2.5c-13.553 0-20.33 0-24.54-4.21C73 61.58 73 54.803 73 41.25v-2.5z" fill="#2787F5"/><path fill-rule="evenodd" clip-rule="evenodd" d="M89.25 28.75h-4.375c-1.25 0-1.5.588-1.5 1.237 0 1.16 1.483 6.907 6.907 14.508 3.616 5.191 8.711 8.005 13.347 8.005 2.782 0 3.126-.625 3.126-1.702v-3.923c0-1.25.264-1.5 1.144-1.5.649 0 1.762.325 4.358 2.828 2.967 2.966 3.457 4.297 5.125 4.297h4.376c1.251 0 1.876-.625 1.515-1.858-.394-1.23-1.811-3.013-3.691-5.127-1.02-1.206-2.55-2.503-3.013-3.152-.649-.834-.464-1.205 0-1.947 0 0 5.331-7.509 5.888-10.058.278-.927 0-1.608-1.324-1.608h-4.376c-1.112 0-1.625.588-1.904 1.237 0 0-2.225 5.423-5.377 8.946-1.02 1.02-1.484 1.344-2.04 1.344-.278 0-.681-.325-.681-1.251v-8.668c0-1.112-.323-1.608-1.25-1.608h-6.877c-.695 0-1.114.516-1.114 1.006 0 1.054 1.577 1.297 1.74 4.264v6.442c0 1.413-.256 1.67-.812 1.67-1.484 0-5.092-5.448-7.233-11.681-.419-1.212-.84-1.701-1.958-1.701z" fill="#fff"/></g><defs><clipPath id="clip0"><path fill="#fff" transform="translate(73 10)" d="M0 0h60v60H0z"/></clipPath></defs></svg>