<svg width="206" height="110" fill="none" xmlns="http://www.w3.org/2000/svg"><path d="M48.969 88.723h-1.95V94h-.48v-5.277h-1.945v-.41h4.375v.41zm4.062 2.55h-2.66v2.32h3.059V94h-3.54v-5.688h3.52v.41h-3.039v2.145h2.66v.406zm3.145-.554l1.601-2.406h.575l-1.883 2.804L58.41 94h-.578l-1.656-2.484L54.512 94h-.57l1.945-2.883L54 88.312h.574l1.602 2.407zM63.559 94h-.485v-2.727h-3.25V94h-.48v-5.688h.48v2.555h3.25v-2.555h.485V94zm5.652-2.535c0 .523-.091.983-.273 1.379-.18.396-.438.7-.774.914-.336.213-.724.32-1.164.32-.664 0-1.2-.237-1.61-.71-.408-.477-.613-1.12-.613-1.927v-.585c0-.519.091-.977.274-1.375a2.1 2.1 0 01.781-.922 2.097 2.097 0 011.16-.325c.438 0 .823.106 1.156.317.336.21.596.509.778.894.182.386.277.832.285 1.34v.68zm-.48-.617c0-.685-.155-1.222-.465-1.61-.31-.388-.735-.582-1.274-.582-.529 0-.95.196-1.265.586-.313.388-.47.931-.47 1.63v.593c0 .674.157 1.21.47 1.605.312.394.736.59 1.273.59.544 0 .969-.194 1.273-.582.305-.39.458-.934.458-1.629v-.601zm5.734-2.535V94h-.48v-5.277h-2.403l-.133 2.351c-.052.841-.133 1.453-.242 1.836-.107.38-.26.656-.46.828-.199.17-.468.257-.81.262h-.203v-.406l.157-.004c.268-.013.47-.098.605-.254.136-.156.24-.409.313-.758.075-.351.134-.893.175-1.625l.141-2.64h3.34zm5.652 3.152c0 .523-.091.983-.273 1.379-.18.396-.438.7-.774.914-.336.213-.724.32-1.164.32-.664 0-1.2-.237-1.61-.71-.408-.477-.612-1.12-.612-1.927v-.585c0-.519.09-.977.273-1.375a2.1 2.1 0 01.781-.922 2.096 2.096 0 011.16-.325c.438 0 .823.106 1.157.317.336.21.595.509.777.894.182.386.277.832.285 1.34v.68zm-.48-.617c0-.685-.155-1.222-.465-1.61-.31-.388-.734-.582-1.274-.582-.528 0-.95.196-1.265.586-.313.388-.469.931-.469 1.63v.593c0 .674.156 1.21.469 1.605.312.394.737.59 1.273.59.544 0 .969-.194 1.274-.582.304-.39.457-.934.457-1.629v-.601zm5.125-2.125h-2.95V94h-.48v-5.688h3.43v.41zm4.719-.41h.48V94h-.48v-4.867L86.242 94h-.484v-5.688h.484v4.864l3.239-4.864zm5.71 0V94h-.484v-2.586a5.741 5.741 0 01-1.539.223c-.646 0-1.122-.14-1.43-.418-.307-.279-.465-.707-.472-1.285v-1.621h.484v1.593c.003.461.116.797.34 1.008.226.208.586.313 1.078.313.497 0 1.01-.075 1.539-.223v-2.692h.484zm4.59 2.96h-2.66v2.32h3.059V94h-3.54v-5.688h3.52v.41h-3.039v2.145h2.66v.406zm5.442.954c-.065.599-.28 1.057-.645 1.375-.362.317-.845.476-1.449.476-.422 0-.796-.105-1.121-.316a2.068 2.068 0 01-.75-.895 3.215 3.215 0 01-.27-1.328v-.738c0-.505.089-.953.266-1.344.177-.39.431-.691.762-.902a2.08 2.08 0 011.148-.32c.609 0 1.09.165 1.441.496.355.328.56.782.618 1.363h-.485c-.12-.966-.644-1.45-1.574-1.45-.516 0-.927.193-1.234.579-.305.385-.457.918-.457 1.597v.696c0 .656.148 1.18.445 1.57.299.39.703.586 1.211.586.503 0 .881-.12 1.137-.36.255-.242.412-.604.472-1.085h.485zm2.449-.895h-.781V94h-.481v-5.688h.481v2.61h.757l2.2-2.61h.605l-2.336 2.797L110.625 94h-.598l-2.355-2.668zm7.566-3.02h.481V94h-.481v-4.867L112 94h-.484v-5.688H112v4.864l3.238-4.864zm5.68 0h.48V94h-.48v-4.867L117.68 94h-.485v-5.688h.485v4.864l3.238-4.864zm-.461-1.398a.93.93 0 01-.309.727c-.203.184-.476.277-.82.277-.338 0-.612-.091-.82-.274a.934.934 0 01-.309-.73h.399c0 .216.063.382.191.496.13.115.31.172.539.172.229 0 .408-.06.535-.18a.632.632 0 00.196-.488h.398zM129.004 94h-.481v-5.277h-3.218V94h-.481v-5.688h4.18V94zm4.535-1.594h-2.582L130.371 94h-.504l2.153-5.688h.457L134.629 94h-.5l-.59-1.594zm-2.434-.41h2.282l-1.141-3.098-1.141 3.098zm4.844-.312V94h-.48v-5.688h1.937c.591 0 1.058.151 1.399.454.343.302.515.717.515 1.246 0 .534-.165.946-.496 1.238-.328.29-.804.434-1.429.434h-1.446zm0-.407h1.457c.466 0 .822-.11 1.067-.332.244-.221.367-.53.367-.925 0-.394-.123-.706-.367-.938-.243-.234-.588-.354-1.035-.36h-1.489v2.555zm8.309-2.554h-1.949V94h-.481v-5.277h-1.945v-.41h4.375v.41zM149.395 94h-.485v-2.727h-3.25V94h-.48v-5.688h.48v2.555h3.25v-2.555h.485V94zm4.589-2.727h-2.66v2.32h3.059V94h-3.539v-5.688h3.519v.41h-3.039v2.145h2.66v.406zm1.895.41V94h-.481v-5.688h1.938c.591 0 1.057.151 1.398.454.344.302.516.717.516 1.246 0 .534-.165.946-.496 1.238-.328.29-.805.434-1.43.434h-1.445zm0-.406h1.457c.466 0 .822-.11 1.066-.332.245-.221.368-.53.368-.925 0-.394-.123-.706-.368-.938-.242-.234-.587-.354-1.035-.36h-1.488v2.555z" fill="gray"/><g clip-path="url(#clip0)" fill-rule="evenodd" clip-rule="evenodd"><path d="M53 63.913h49.972L151.876 15H53v48.913z" fill="url(#paint0_linear)"/><path d="M111.678 24.783h-9.765l.033 22.967-8.504-22.975h-8.431l-7.259 19.188c-.772-4.883-5.82-6.567-9.791-7.83-2.623-.842-5.407-2.08-5.378-3.45.021-1.124 1.489-2.167 4.405-2.011 1.957.105 3.685.263 7.123 1.924l3.38-5.892c-3.135-1.595-7.47-2.603-11.024-2.606h-.021c-4.145 0-7.596 1.342-9.735 3.554-1.492 1.544-2.296 3.507-2.328 5.677-.055 2.987 1.04 5.105 3.34 6.797 1.943 1.424 4.43 2.348 6.62 3.026 2.7.837 4.907 1.565 4.88 3.115a2.296 2.296 0 01-.641 1.52c-.674.696-1.707.956-3.136.985-2.758.058-4.801-.375-8.058-2.3l-3.008 5.967c3.254 1.85 6.707 2.778 10.63 2.778l.883-.006c3.416-.062 6.187-.88 8.39-2.652.126-.101.239-.204.356-.307l-.37 1.904 8.24-.026 1.478-3.784c1.554.53 3.322.824 5.198.824 1.828 0 3.547-.279 5.072-.779l1.031 3.74 14.783.014.035-8.629h3.146c7.603 0 12.098-3.87 12.098-10.358-.002-7.228-4.372-10.375-13.672-10.375zM89.185 44.415a8.835 8.835 0 01-3.118-.545l3.083-9.734h.06l3.032 9.76a9.127 9.127 0 01-3.058.52zm23.065-5.592h-2.146v-7.845h2.147c2.859 0 5.141.952 5.141 3.872-.002 3.022-2.282 3.973-5.141 3.973" fill="#fff"/></g><defs><linearGradient id="paint0_linear" x1="102.438" y1="15" x2="102.438" y2="63.914" gradientUnits="userSpaceOnUse"><stop stop-color="#00AEEF"/><stop offset=".212" stop-color="#0097DC"/><stop offset=".519" stop-color="#007CC5"/><stop offset=".792" stop-color="#006CB8"/><stop offset="1" stop-color="#0066B3"/></linearGradient><clipPath id="clip0"><path fill="#fff" transform="translate(53 15)" d="M0 0h100v48.913H0z"/></clipPath></defs></svg>