<svg width="206" height="110" fill="none" xmlns="http://www.w3.org/2000/svg"><path d="M89.156 94h-.48v-5.277h-3.219V94h-.48v-5.688h4.18V94zm4.535-1.594H91.11L90.523 94h-.504l2.153-5.688h.457L94.78 94h-.5l-.59-1.594zm-2.433-.41h2.281l-1.14-3.098-1.141 3.098zm4.844-.312V94h-.48v-5.688h1.937c.59 0 1.057.151 1.398.454.344.302.516.717.516 1.246 0 .534-.166.946-.496 1.238-.329.29-.805.434-1.43.434h-1.445zm0-.407h1.457c.466 0 .821-.11 1.066-.332.245-.221.367-.53.367-.925 0-.394-.122-.706-.367-.938-.242-.234-.587-.354-1.035-.36h-1.488v2.555zm8.308-2.554h-1.949V94h-.481v-5.277h-1.945v-.41h4.375v.41zM109.547 94h-.485v-2.727h-3.25V94h-.48v-5.688h.48v2.555h3.25v-2.555h.485V94zm4.59-2.727h-2.66v2.32h3.058V94h-3.539v-5.688h3.52v.41h-3.039v2.145h2.66v.406zm1.894.41V94h-.48v-5.688h1.937c.591 0 1.058.151 1.399.454.343.302.515.717.515 1.246 0 .534-.165.946-.496 1.238-.328.29-.804.434-1.429.434h-1.446zm0-.406h1.457c.466 0 .822-.11 1.067-.332.244-.221.367-.53.367-.925 0-.394-.123-.706-.367-.938-.243-.234-.588-.354-1.035-.36h-1.489v2.555z" fill="gray"/><g clip-path="url(#clip0)" fill="#000"><path d="M113.577 23.324c0-2.2-1.843-3.402-3.248-3.32-1.61-.082-3.31 1.303-3.3 3.31 0 1.864 1.395 3.32 3.249 3.33 1.925.02 3.31-1.507 3.299-3.32zM78.278 49.977V36.299c0-4.593 0-9.176-.02-13.77 0-.33 0-.493-.082-.574-.079-.077-.234-.077-.54-.077h-5.163c-.652 0-.652 0-.652.682V33c0 .301 0 .452-.075.526-.074.074-.222.074-.516.074H60.027c-.295 0-.443 0-.517-.074-.073-.074-.073-.221-.073-.517v-9.92c0-.087 0-.176.002-.266.002-.18.005-.361-.002-.538-.01-.346-.051-.397-.387-.397h-5.571c-.428 0-.469.05-.479.489v27.682c0 .101 0 .213.01.315.01.153.092.255.255.255.122.01.234.01.356.01h5.164c.33 0 .496 0 .58-.083.082-.082.082-.248.082-.579V39.619c0-.652.01-.652.631-.652H71.16c.341 0 .512 0 .597.086.085.085.085.256.085.597v10.398c0 .57.02.59.581.59h5.204c.325 0 .487 0 .57-.08.082-.083.082-.248.082-.581z"/><path fill-rule="evenodd" clip-rule="evenodd" d="M103.679 49.957V39.762c0-1.66 0-3.32.02-4.98v-5.418c0-.469-.041-.51-.499-.51h-4.685c-.417.01-.448.041-.458.469-.02.652-.02.652-.59.356-2.262-1.171-4.635-1.548-7.13-1.09-2.607.48-4.787 1.752-6.518 3.8-1.701 2.016-2.567 4.379-2.679 7.027a10.767 10.767 0 00.662 4.165c1.1 3.025 3.096 5.204 5.979 6.528 1.456.663 2.994.968 4.593.958a10.972 10.972 0 004.97-1.202c.53-.275.53-.275.55.346.01.387.04.418.407.428h4.726c.321 0 .484 0 .567-.081.085-.084.085-.255.085-.601zM91.722 33.295c.285-.041.57-.072.866-.061 1.782.02 3.33.651 4.583 1.914 1.1 1.11 1.721 2.475 1.843 4.064.143 1.935-.448 3.605-1.741 4.99-1.06 1.13-2.373 1.783-3.911 1.966-1.518.173-2.944-.112-4.217-.957-2.108-1.396-3.136-3.402-2.984-5.958.184-3.066 2.546-5.55 5.561-5.958zm30.472 7.699c-.59 0-.601.01-.458.591.631 2.546 2.78 4.512 5.316 4.787 2.282.244 4.145-.601 5.581-2.434.143-.184.286-.367.387-.56.143-.286.347-.326.622-.275.37.072.745.136 1.118.2l.603.105c.754.133 1.507.265 2.271.407l.023.004c.056.01.117.02.171.037.325.082.356.122.213.438a11.147 11.147 0 01-1.598 2.597c-1.712 2.058-3.86 3.402-6.458 3.921-3.564.703-6.823-.03-9.665-2.373-2.413-1.986-3.778-4.583-4.074-7.73-.203-2.128.184-4.176 1.172-6.07 1.66-3.188 4.247-5.214 7.699-5.978 3.728-.815 7.099.05 10.022 2.556 2.179 1.874 3.412 4.298 3.799 7.16.101.743.152 1.507.03 2.26-.051.296-.071.337-.366.357-.081.007-.158.005-.236.003a3.702 3.702 0 00-.121-.003h-16.051zm10.786-3.727c.122 0 .234 0 .356-.01.112-.01.173-.072.133-.194-.031-.092-.072-.173-.112-.254a6.275 6.275 0 00-1.559-2.078c-1.314-1.171-2.851-1.732-4.573-1.548-2.322.244-4.002 1.497-5.051 3.626-.214.437-.214.458.285.458h10.521z"/><path d="M141.485 41.931l-.002 1.834c0 2.067 0 4.134.021 6.181l-.002.078-.001.045c-.002.081-.004.163.003.244.01.255.05.295.305.316h4.644c.316 0 .476 0 .558-.08.084-.083.084-.251.084-.592v-11.53c0-.468.03-.946.112-1.405.428-2.301 2.098-4.023 4.349-4.501.417-.082.427-.102.356-.53-.01-.061-.02-.112-.03-.163a333.56 333.56 0 00-.51-2.984l-.099-.57c-.066-.38-.132-.76-.206-1.14-.051-.276-.092-.296-.357-.256a7.217 7.217 0 00-.926.235c-4.971 1.436-8.331 6.182-8.301 11.152.007 1.221.005 2.443.002 3.664v.002zm-28.253-2.2v10.277c0 .319 0 .477-.079.555-.077.076-.23.076-.532.076h-4.96c-.245-.02-.295-.061-.316-.316-.01-.122-.01-.244-.01-.366v-20.4c0-.367 0-.547.09-.636.088-.087.261-.087.603-.087h4.888c.245.02.285.061.306.326.006.087.004.175.002.265a3447.197 3447.197 0 01.008 10.306z"/></g><defs><clipPath id="clip0"><path fill="#fff" transform="translate(53 20)" d="M0 0h100v31.818H0z"/></clipPath></defs></svg>