<svg width="206" height="110" fill="none" xmlns="http://www.w3.org/2000/svg"><path d="M89.156 94h-.48v-5.277h-3.219V94h-.48v-5.688h4.18V94zm4.535-1.594H91.11L90.523 94h-.504l2.153-5.688h.457L94.78 94h-.5l-.59-1.594zm-2.433-.41h2.281l-1.14-3.098-1.141 3.098zm4.844-.312V94h-.48v-5.688h1.937c.59 0 1.057.151 1.398.454.344.302.516.717.516 1.246 0 .534-.166.946-.496 1.238-.329.29-.805.434-1.43.434h-1.445zm0-.407h1.457c.466 0 .821-.11 1.066-.332.245-.221.367-.53.367-.925 0-.394-.122-.706-.367-.938-.242-.234-.587-.354-1.035-.36h-1.488v2.555zm8.308-2.554h-1.949V94h-.481v-5.277h-1.945v-.41h4.375v.41zM109.547 94h-.485v-2.727h-3.25V94h-.48v-5.688h.48v2.555h3.25v-2.555h.485V94zm4.59-2.727h-2.66v2.32h3.058V94h-3.539v-5.688h3.52v.41h-3.039v2.145h2.66v.406zm1.894.41V94h-.48v-5.688h1.937c.591 0 1.058.151 1.399.454.343.302.515.717.515 1.246 0 .534-.165.946-.496 1.238-.328.29-.804.434-1.429.434h-1.446zm0-.406h1.457c.466 0 .822-.11 1.067-.332.244-.221.367-.53.367-.925 0-.394-.123-.706-.367-.938-.243-.234-.588-.354-1.035-.36h-1.489v2.555z" fill="gray"/><g clip-path="url(#clip0)"><path d="M68.646 28.65c-.055.164-1.717 5.64-1.717 5.64h-5.34l1.717-5.64h-6.13s-4.631 15.12-4.713 15.42h6.13c.054-.163 1.988-6.456 1.988-6.456h5.34s-1.88 6.184-1.989 6.457h6.13c.055-.164 4.632-15.12 4.713-15.42h-6.13zm32.202 1.663l-.272.217.572-1.88h-6.13s-4.632 15.12-4.713 15.42h6.13c.054-.163 2.86-9.29 2.86-9.29.382-1.28 1.417-2.152 2.506-2.152h1.581c.49 0 .871.164 1.117.49a1.6 1.6 0 01.272.9c0 .245-.054.544-.136.844 0 0-2.452 8.064-2.834 9.236h6.103c.055-.164 3.324-10.87 3.324-10.87.081-.3.245-.872.245-1.499 0-.654-.136-1.362-.599-1.989-.682-.926-1.88-1.39-3.569-1.39-3.297-.026-5.449 1.227-6.457 1.962zM76.6 29.74c.055.191.873 3.052.955 3.27.544-.218 2.833-1.117 4.822-1.117 1.907 0 2.97.245 3.378.79.218.272.245.626.109 1.062l-.382 1.253-.109-.027c-2.588-.844-4.55-.817-4.55-.817-2.043 0-3.895.517-5.312 1.471-1.39.926-2.37 2.234-2.833 3.814-.436 1.39-.327 2.561.3 3.406.735.98 2.152 1.498 4.14 1.498 1.88 0 3.924-.49 5.749-1.362l.245-.11s-.3.954-.354 1.172h6.075c.055-.163 3.27-10.652 3.27-10.652.136-.436.19-.872.19-1.253 0-.681-.19-1.28-.572-1.771-.98-1.335-3.242-2.043-6.566-2.043-4.059 0-7.873 1.198-8.554 1.416zm4.85 7.601c.463 0 2.07.028 3.052.49l.081.055-.68 2.234-.055.027c-.981.464-2.343.763-3.433.763-1.035 0-1.744-.245-2.098-.68a1.109 1.109 0 01-.218-.655c0-.136.028-.3.082-.463.382-1.117 1.58-1.77 3.27-1.77zm43.263-8.772c-.054.054-5.857 4.631-5.857 4.631l1.416-4.631h-6.102s-4.686 15.365-4.795 15.638h6.13c.054-.164 1.934-6.348 1.934-6.348s4.386 6.266 4.468 6.348h6.538c-.245-.354-5.612-8.01-5.612-8.01l9.263-7.628h-7.383z" fill="#000"/><path d="M127.274 36.388c-.654 2.18-.409 4.223.708 5.721 1.281 1.716 3.542 2.67 6.43 2.67 6.756 0 10.57-2.616 12.368-8.473.654-2.18.409-4.223-.708-5.721-1.28-1.716-3.542-2.67-6.429-2.67-6.212 0-10.734 3.079-12.369 8.473zm5.966 3.433c-.545-.736-.545-1.853-.054-3.488.599-1.988 1.989-4.331 5.122-4.331 1.198 0 2.016.3 2.452.899.544.708.544 1.852.054 3.487-.599 1.989-1.989 4.332-5.122 4.332-1.171 0-1.989-.3-2.452-.9zm14.439-3.433c-.654 2.18-.408 4.223.709 5.721 1.28 1.716 3.541 2.67 6.429 2.67 6.756 0 10.571-2.616 12.369-8.473.654-2.18.408-4.223-.709-5.721-1.28-1.716-3.569-2.67-6.429-2.67-6.212 0-10.734 3.079-12.369 8.473zm11.061-4.414c1.199 0 2.016.3 2.452.9.545.708.545 1.852.055 3.487-.6 1.988-1.989 4.331-5.122 4.331-1.199 0-2.016-.3-2.452-.926-.545-.735-.545-1.852-.055-3.487.6-1.934 1.989-4.305 5.122-4.305zm22.286-3.541c-.055.054-5.939 5.04-5.939 5.04l1.525-5.04h-6.129s-4.768 15.61-4.877 15.883h6.13c.054-.164 1.989-6.457 1.989-6.457s4.74 6.375 4.794 6.457h6.702c-.272-.355-6.02-8.064-6.02-8.064s8.309-7.438 8.772-7.82h-6.947z" fill="#000"/><path d="M54.289 26.008l-.082-.763h-5.176c.6 6.13-3.624 12.968-9.645 14.603-.027 0-.108 0-.108-.082 0-.027 0-.054.027-.082 5.013-3.35 7.655-8.745 7.22-14.439h-5.068c.218 4.986-3.133 9.536-8.255 11.388-.027 0-.109 0-.109-.082 0-.027.027-.054.055-.081 3.705-2.534 5.939-6.321 5.803-11.225H33.8c-.054 5.885-5.34 9.999-15.719 9.999.136.081.3.163.436.245 6.756 3.678 10.27 5.966 15.23 9.998.762.654 1.824 1.008 2.914.98 13.431-.898 18.253-12.695 17.627-20.459z" fill="#ED6C00"/><path d="M85.319 47.149s-.49 1.607-.627 1.989c-.626-.382-1.39-.572-2.397-.572-2.289 0-4.114 1.144-4.659 2.887-.245.763-.163 1.417.19 1.908.464.626 1.39.953 2.643.953.981 0 1.88-.19 2.78-.545-.028.082-.137.463-.137.463h1.798l2.343-7.6-1.934.517zm-5.858 5.612c-.218-.272-.245-.654-.081-1.171.408-1.308 1.362-1.962 2.833-1.962 1.063 0 1.77.3 2.125.627a82.101 82.101 0 01-.736 2.343 5.356 5.356 0 01-2.615.68c-.736-.026-1.253-.19-1.526-.517zm10.026-3.705c0-.027.109-.381.109-.381h-1.825l-1.69 5.503h1.799l.98-3.133c.273-.9 1.145-1.417 2.37-1.417a4.19 4.19 0 011.335.19l.137.055.844-1.09-.327-.081c-.354-.082-.844-.136-1.525-.136-.763 0-1.58.19-2.207.49zm4.468-1.662a.427.427 0 00.082.436c.163.218.518.354.98.354.546 0 1.172-.245 1.309-.653a.482.482 0 00-.082-.436c-.164-.218-.518-.355-.9-.355-.68 0-1.252.273-1.389.654zm-.081 1.28l-1.717 5.504h1.826l1.689-5.503h-1.798zm8.99.001s-3.705 4.005-3.733 4.059a842.14 842.14 0 00-1.225-4.06h-1.907l2.016 5.504h1.444l5.421-5.503h-2.016zm2.343-1.281a.428.428 0 00.082.436c.163.218.518.354.981.354.545 0 1.171-.245 1.307-.654.055-.163 0-.327-.081-.463-.164-.218-.518-.354-.899-.354-.709.027-1.281.3-1.39.681zm-.109 1.28l-1.716 5.504h1.825l1.689-5.503h-1.798zm4.713.409c.027-.054.136-.408.136-.408h-1.825l-1.689 5.503h1.798l.953-3.133c.3-.926 1.281-1.444 2.697-1.444.818 0 1.335.136 1.526.409.136.19.163.49.027.899l-1.008 3.269h1.798l1.008-3.242c.191-.6.137-1.117-.163-1.498-.436-.573-1.362-.872-2.779-.872-.872 0-1.744.19-2.479.517zm5.884 2.37c-.109.355-.163.682-.136.954.027.354.136.681.327.954.463.626 1.39.953 2.643.953.981 0 1.88-.19 2.779-.545-.355.9-1.145 1.308-4.223 1.362h-.3l.463.954h.137c1.825-.027 3.133-.245 4.059-.627.899-.381 1.471-1.008 1.743-1.852l1.526-4.904h-1.825s-.082.3-.136.463c-.627-.381-1.39-.572-2.398-.572-2.288-.027-4.114 1.117-4.659 2.86zm1.826 1.308c-.218-.272-.218-.654-.082-1.171.409-1.308 1.362-1.962 2.833-1.962 1.063 0 1.771.3 2.125.627a82.04 82.04 0 01-.735 2.343 5.359 5.359 0 01-2.616.68c-.735-.026-1.28-.19-1.525-.517zm10.271-1.416c-.082.327-.136.599-.136.899a1.7 1.7 0 00.354.953c.763.98 2.397 1.09 3.051 1.09 1.471 0 2.398-.19 3.705-.6l.3-.081-.79-.872-.136.027c-1.008.327-1.689.49-2.752.49-.817 0-1.417-.19-1.716-.544a.898.898 0 01-.218-.6v-.218h6.375l.054-.081a1.29 1.29 0 00.191-.436c.082-.273.136-.545.109-.79a1.802 1.802 0 00-.327-.926c-.518-.682-1.58-1.063-3.078-1.063-2.452-.027-4.468 1.09-4.986 2.752zm4.795-1.744c.844 0 1.444.19 1.716.518a.86.86 0 01.191.517v.218h-4.659c.491-.79 1.471-1.253 2.752-1.253zm11.388-.218c-.355-.409-1.036-.79-2.425-.79-.872 0-1.662.163-2.289.49 0-.027.109-.381.109-.381h-1.825l-1.689 5.503h1.798l.954-3.106c.299-.953 1.117-1.47 2.451-1.47.709 0 1.172.135 1.363.38.136.191.163.518.027.954l-1.008 3.27h1.825l.954-3.106c.299-.954 1.117-1.471 2.452-1.471.735 0 1.171.108 1.362.354.136.19.163.517.027.953l-1.008 3.27h1.825l1.008-3.243c.191-.626.137-1.171-.163-1.553-.409-.544-1.28-.817-2.588-.817-1.608-.054-2.507.354-3.16.763zm8.281-.109c-1.008.49-1.662 1.226-1.934 2.098-.218.68-.136 1.307.245 1.798.545.735 1.717 1.144 3.297 1.144 1.198 0 2.37-.245 3.296-.708 1.008-.518 1.662-1.226 1.934-2.098.218-.681.137-1.28-.245-1.77-.545-.736-1.716-1.118-3.323-1.118-1.226-.054-2.371.19-3.27.654zm-.054 3.378c-.218-.272-.245-.68-.109-1.171.354-1.199 1.525-1.88 3.215-1.88.926 0 1.58.218 1.879.6.218.272.246.653.109 1.144-.354 1.198-1.58 1.907-3.242 1.907-.899 0-1.553-.218-1.852-.6zm9.235-5.502s-.409 1.307-.463 1.552h-1.199l-.299 1.035h1.171c-.136.463-.981 3.16-.981 3.16a1.854 1.854 0 00-.081.49.74.74 0 00.163.464c.245.327.763.49 1.58.49.708 0 1.253-.054 1.88-.19l.082-.028.517-1.09-.408.082a6.55 6.55 0 01-1.363.137c-.49 0-.572-.082-.599-.11 0 0-.027-.054.027-.245 0 0 .79-2.56.981-3.187h2.37l.3-1.035h-2.397c.136-.409.626-2.07.626-2.07l-1.907.544zm4.686.244a.428.428 0 00.082.436c.163.218.518.354.981.354.545 0 1.171-.245 1.307-.653a.482.482 0 00-.081-.436c-.164-.218-.518-.355-.899-.355-.709 0-1.281.273-1.39.654zm-.109 1.28l-1.716 5.504h1.825l1.689-5.503h-1.798zm3.624.6c-1.008.49-1.662 1.226-1.934 2.098-.218.68-.136 1.307.245 1.798.545.735 1.716 1.144 3.296 1.144 1.199 0 2.371-.245 3.297-.708 1.008-.518 1.662-1.226 1.934-2.098.218-.681.136-1.308-.245-1.77-.545-.736-1.716-1.118-3.324-1.118-1.198-.054-2.343.19-3.269.654zm3.079.327c.926 0 1.58.218 1.879.6.218.272.246.653.109 1.144-.354 1.198-1.58 1.907-3.242 1.907-.899 0-1.552-.218-1.852-.6-.109-.163-.191-.327-.191-.545 0-.19.027-.381.082-.626.354-1.172 1.526-1.88 3.215-1.88zm6.946-.518a6.64 6.64 0 00.137-.408h-1.826l-1.689 5.503h1.798l.954-3.133c.408-1.308 2.016-1.444 2.697-1.444.817 0 1.335.136 1.526.409.136.19.163.49.027.899l-1.008 3.269h1.825l1.008-3.242c.191-.6.136-1.117-.163-1.498-.436-.573-1.363-.872-2.779-.872-.927 0-1.798.19-2.507.517z" fill="#B5B2AF"/></g><defs><clipPath id="clip0"><path fill="#fff" transform="translate(18 25)" d="M0 0h170v31.33H0z"/></clipPath></defs></svg>