<svg width="50" height="50" fill="none" xmlns="http://www.w3.org/2000/svg"><path fill-rule="evenodd" clip-rule="evenodd" d="M36.945 6.843c.5-.607 1.48-.74 2.178-.342.705.401.906 1.21.411 1.813L26.853 23.74l6.966 8.475c.753.918 2.001 1.465 3.338 1.465h10.985c.865 0 1.568.585 1.568 1.304V37.9c0 .72-.703 1.304-1.568 1.304H39.56c-2.377 0-4.596-.974-5.937-2.605l-8.67-10.547-8.67 10.547c-1.34 1.631-3.56 2.605-5.937 2.605H1.764C.9 39.204.196 38.619.196 37.9v-2.915c0-.719.703-1.304 1.568-1.304H12.75c1.337 0 2.585-.547 3.339-1.465l6.966-8.475L10.372 8.314c-.494-.604-.294-1.412.41-1.813.7-.398 1.68-.265 2.18.342L24.953 21.43 36.945 6.843zm-17.63 32.135c2.484 1.371 8.487.956 9.687-.24-.294-.3-.992-.544-1.399-.66-3.038-.865-7.642-.342-8.622.66.09.09.218.177.334.24zm8.288 4.353c-2.055.587-5.167.587-7.223 0-.978-.279-1.357-.59-1.436-.703v-1.9c2.577 1.124 7.513 1.127 10.095 0v1.9c-.079.112-.458.424-1.436.703z" fill="#fff"/></svg>