<svg width="50" height="50" fill="none" xmlns="http://www.w3.org/2000/svg"><path d="M46.548 7.111H3.52a1.852 1.852 0 00-1.854 1.85v32.101c0 1.021.83 1.85 1.854 1.85h43.027a1.852 1.852 0 001.855-1.85V8.96c0-1.02-.831-1.849-1.855-1.849zM18.422 32.234l1.608-5.613h-6.002l-1.61 5.613H8.735l4.14-14.446h3.685l-1.703 5.944h6.002l1.703-5.944h3.686l-4.14 14.446h-3.685zm22.585-7.223c-1.224 4.272-5.258 7.223-9.916 7.223h-6.086l2.735-9.544h3.684l-1.894 6.613h2.628c2.257 0 4.368-1.733 5.096-4.27.733-2.56-.462-4.314-2.8-4.314h-6.15l.84-2.93h6.232c4.554 0 6.86 2.93 5.63 7.222z" fill="#fff"/></svg>