<svg width="50" height="50" fill="none" xmlns="http://www.w3.org/2000/svg"><path fill-rule="evenodd" clip-rule="evenodd" d="M3.333 1.429C3.333.639 3.973 0 4.762 0h32.857c.79 0 1.429.64 1.429 1.429V17.5h-1.786V4.286H5.12v39.286h19.286v4.285H4.762c-.79 0-1.429-.64-1.429-1.428v-45z" fill="#fff"/><path fill-rule="evenodd" clip-rule="evenodd" d="M26.19 20.714c0-.789.64-1.428 1.428-1.428h17.143c.79 0 1.429.64 1.429 1.428v27.858A1.43 1.43 0 0144.761 50H27.618c-.788 0-1.428-.64-1.428-1.428V20.713zm1.786 1.429v23.571h16.428V22.143H27.976z" fill="#fff"/></svg>