<svg width="18" height="18" fill="none" xmlns="http://www.w3.org/2000/svg"><path fill-rule="evenodd" clip-rule="evenodd" d="M18 0H0v18h18V0zM7.63 11.972h1.23V6H7.63v2.42h-2.4V6H4v5.972h1.23v-2.56h2.4v2.56zM9.94 6v5.972h1.849a2.812 2.812 0 001.407-.361c.415-.238.737-.573.964-1.005.23-.432.344-.926.344-1.48V8.85c0-.556-.116-1.05-.348-1.485a2.453 2.453 0 00-.973-1.01A2.767 2.767 0 0011.777 6H9.939zm1.23 4.983V6.997h.607c.484 0 .851.157 1.103.471.252.312.377.771.377 1.378v.316c-.005.585-.135 1.035-.39 1.35-.254.314-.621.471-1.103.471h-.594z" fill="gray"/></svg>