<svg width="18" height="18" fill="none" xmlns="http://www.w3.org/2000/svg"><path clip-rule="evenodd" d="M18 0H0v18h18V0zM9 1.588c-3.795 0-6.882 2.922-6.882 6.514v.012c.273-.196.59-.34.938-.404C3.271 4.78 5.851 2.457 9 2.457s5.73 2.323 5.944 5.253c.349.064.665.208.938.403v-.01c0-3.593-3.087-6.515-6.882-6.515zM3.954 8.971c0-.718.618-1.302 1.377-1.302s1.376.584 1.376 1.302v3.533c0 .718-.617 1.302-1.376 1.302-.759 0-1.377-.584-1.377-1.302V8.97zm-.88-.366c-.02.12-.038.24-.038.366v3.532c0 .125.017.246.039.366-.553-.17-.957-.655-.957-1.235V9.84c0-.579.404-1.065.957-1.234zm9.596-.936c-.759 0-1.376.584-1.376 1.302v3.533c0 .718.617 1.302 1.376 1.302.138 0 .269-.025.395-.06a1.366 1.366 0 01-1.312.929h-1.461A1.371 1.371 0 009 13.806c-.76 0-1.377.585-1.377 1.303 0 .719.618 1.303 1.377 1.303.597 0 1.101-.364 1.292-.868h1.46c1.265 0 2.295-.975 2.295-2.172V8.971c0-.718-.618-1.302-1.377-1.302zm2.296 1.302a2.02 2.02 0 00-.039-.366c.553.17.957.655.957 1.234v1.795c0 .58-.404 1.066-.957 1.235.022-.12.04-.24.04-.366V8.971z"/></svg>