<svg width="32" height="20" fill="none" xmlns="http://www.w3.org/2000/svg"><path fill-rule="evenodd" clip-rule="evenodd" d="M21.846 0h9.23c.51 0 .924.413.924.923v8.615a.922.922 0 01-.745.906l-9.84 1.936a9.6 9.6 0 01-3.172 4.625 9.437 9.437 0 01-5.935 2.072c-4.068 0-7.55-2.56-8.918-6.154h-.005A3.388 3.388 0 010 9.538a3.388 3.388 0 013.385-3.384h.005C4.76 2.56 8.24 0 12.308 0h6.154c.51 0 .923.413.923.923v2.77h.817l.749-2.994A.923.923 0 0121.846 0zm-20 9.538a1.54 1.54 0 001.034 1.453 9.579 9.579 0 010-2.905 1.54 1.54 0 00-1.034 1.452zm18.654 1.14l9.654-1.899V1.846h-7.587l-.748 2.993a.923.923 0 01-.896.7h-2.461a.923.923 0 01-.924-.924V1.846h-5.23c-4.242 0-7.693 3.45-7.693 7.692s3.451 7.693 7.693 7.693a7.67 7.67 0 007.473-5.865.923.923 0 01.719-.688zM7.693 9.538a4.62 4.62 0 014.616-4.615 4.62 4.62 0 014.615 4.615 4.62 4.62 0 01-4.615 4.616 4.62 4.62 0 01-4.616-4.616zm1.846 0a2.772 2.772 0 002.77 2.77 2.772 2.772 0 002.769-2.77 2.772 2.772 0 00-2.77-2.769A2.772 2.772 0 009.54 9.54z" fill="#066EAE"/></svg>