<svg width="21" height="31" fill="none" xmlns="http://www.w3.org/2000/svg"><path fill-rule="evenodd" clip-rule="evenodd" d="M12.097 30.061A1.82 1.82 0 0110.5 31a1.82 1.82 0 01-1.597-.939l-.01-.018-7.573-14.07a10.934 10.934 0 01.139-10.664C3.312 2.062 6.604.079 10.265.002c.156-.003.314-.003.47 0 3.66.076 6.953 2.06 8.806 5.307a10.934 10.934 0 01.14 10.663l-7.574 14.07-.01.02zm-1.4-28.121a9.627 9.627 0 00-.393 0C7.316 2 4.626 3.624 3.11 6.28a8.985 8.985 0 00-.115 8.763L10.5 28.987l7.505-13.944a8.985 8.985 0 00-.115-8.763c-1.516-2.656-4.206-4.279-7.194-4.34zm4.1 7.748c0 2.403-1.927 4.359-4.295 4.359s-4.295-1.956-4.295-4.36c0-2.403 1.927-4.359 4.295-4.359s4.295 1.956 4.295 4.36zm-1.91 0c0-1.336-1.07-2.422-2.385-2.422-1.316 0-2.386 1.086-2.386 2.421 0 1.336 1.07 2.422 2.386 2.422s2.386-1.086 2.386-2.421z" fill="#066EAE"/></svg>