<svg width="18" height="18" fill="none" xmlns="http://www.w3.org/2000/svg"><path fill-rule="evenodd" clip-rule="evenodd" d="M18 0H0v18h18V0zM7.1 9.9c.164.123.246.3.246.533 0 .213-.082.38-.247.5-.164.118-.392.177-.684.177-.788 0-1.182-.33-1.182-.989H4c0 .386.098.725.295 1.018.2.292.488.523.865.693.378.167.796.25 1.256.25.661 0 1.188-.146 1.579-.439.39-.295.586-.701.586-1.218 0-.465-.16-.853-.48-1.165-.32-.312-.83-.573-1.53-.783-.38-.115-.668-.238-.865-.37-.194-.13-.291-.293-.291-.488 0-.207.083-.374.25-.5.167-.128.4-.193.701-.193.312 0 .554.077.726.23.173.15.259.362.259.636h1.23c0-.358-.093-.678-.279-.96a1.788 1.788 0 00-.775-.652 2.664 2.664 0 00-1.14-.234 2.97 2.97 0 00-1.149.213c-.339.143-.6.34-.783.595a1.44 1.44 0 00-.27.861c0 .621.338 1.115 1.016 1.481.25.134.587.27 1.014.41.426.137.721.268.885.394zm2.317-3.872V12h1.85a2.811 2.811 0 001.407-.361 2.44 2.44 0 00.963-1.005c.23-.432.345-.925.345-1.48v-.275c0-.555-.116-1.05-.349-1.485a2.454 2.454 0 00-.972-1.01 2.767 2.767 0 00-1.407-.356H9.417zm1.23 4.984V7.024h.607c.484 0 .852.157 1.104.471.251.312.377.772.377 1.379v.315c-.005.586-.135 1.035-.39 1.35-.254.314-.622.472-1.103.472h-.595z" fill="gray"/></svg>