<svg width="31" height="21" fill="none" xmlns="http://www.w3.org/2000/svg"><path opacity=".1" d="M24.16 20.676c.34.34.88.363 1.219 0a.836.836 0 000-1.219L6.758.847a.87.87 0 00-1.23 0 .878.878 0 000 1.22L24.16 20.675zm1.043-3.27c3.235-2.144 5.332-5.086 5.332-6.398 0-2.25-6.129-9.445-15.035-9.445-1.887 0-3.645.316-5.25.855l2.93 2.93a5.904 5.904 0 012.32-.47c3.41 0 6.164 2.708 6.164 6.13a5.41 5.41 0 01-.504 2.308l4.043 4.09zM15.5 20.453c2.05 0 3.938-.363 5.613-.984l-2.953-2.953c-.797.41-1.7.632-2.66.632-3.422 0-6.152-2.8-6.164-6.14 0-.973.223-1.887.621-2.695l-3.855-3.88C2.622 6.626.453 9.684.453 11.009c0 2.238 6.246 9.445 15.047 9.445zm3.54-9.68a3.501 3.501 0 00-3.517-3.503c-.14 0-.28 0-.398.023l3.89 3.89c.012-.128.024-.269.024-.41zm-7.08.012c0 1.934 1.606 3.516 3.54 3.516.14 0 .281-.012.434-.024l-3.95-3.949c-.011.152-.023.305-.023.457z" fill="#000"/></svg>