<svg width="48" height="43" fill="none" xmlns="http://www.w3.org/2000/svg"><path d="M41.803 0h-5.09l-7.9 11.041h5.09L41.803 0zM18.924 31.959h-5.09L5.934 43h5.09l7.9-11.041zm4.99-6.806L26 28.068h5.09l-4.63-6.47 4.723-6.603h-5.09l-2.179 3.048-2.187-3.048h-5.09l4.732 6.603-4.631 6.47h5.09l2.086-2.915zm-19.781-.226l1.603-1.829 3.347 4.97h4.662l-5.254-7.775.016-.008-.008-.008 4.623-5.282H8.406l-4.273 4.759v-4.759H0v13.073h4.133v-3.141zm32.356-9.917v6.62a4.932 4.932 0 01-.413 2v.054a3.363 3.363 0 01-2.545 1.844l1.736 2.845s5.215-.055 5.448-6.705v-3.313h3.113v9.681H48V15.011H36.49z" fill="#27282A"/></svg>