<svg width="34" height="22" fill="none" xmlns="http://www.w3.org/2000/svg"><path fill-rule="evenodd" clip-rule="evenodd" d="M15.37 16.671l-1.82 1.404 1.433 1.106c-3.528 1.593-7.81.841-10.552-2.075a8.883 8.883 0 010-12.212c2.742-2.916 7.024-3.668 10.553-2.075L13.55 3.925l1.818 1.404-.003.004a8.887 8.887 0 000 11.334l.003.004zm3.296 2.51l1.432-1.106-1.822-1.404.004-.005A8.901 8.901 0 0020.324 11a8.901 8.901 0 00-2.048-5.67l1.822-1.405-1.432-1.106a9.312 9.312 0 017.823.086c3.155 1.505 5.158 4.648 5.158 8.094 0 3.448-2.003 6.59-5.158 8.096a9.312 9.312 0 01-7.823.086zm-1.841 1.3c-4.457 2.59-10.242 1.834-13.851-2.005a10.883 10.883 0 010-14.952c3.61-3.84 9.395-4.595 13.85-2.005A11.308 11.308 0 0127.35 1.1c3.838 1.832 6.297 5.67 6.297 9.9 0 4.233-2.459 8.07-6.297 9.901a11.308 11.308 0 01-10.525-.42zm-.002-13.769a6.899 6.899 0 011.5 4.288c0 1.564-.535 3.07-1.5 4.288A6.885 6.885 0 0115.324 11v-.004a6.885 6.885 0 011.499-4.285z" fill="#1B1B2F"/><path d="M13.324 10.999a8.928 8.928 0 013.5-7.075c-3.757-2.9-9.152-2.478-12.393.97a8.883 8.883 0 000 12.212c3.241 3.448 8.636 3.87 12.393.97a8.928 8.928 0 01-3.5-7.077z" fill="#EB001B"/><path d="M26.489 19.095a9.297 9.297 0 01-9.666-1.02 8.942 8.942 0 003.5-7.075 8.94 8.94 0 00-3.5-7.075 9.297 9.297 0 019.666-1.02c3.155 1.505 5.158 4.648 5.158 8.094 0 3.448-2.003 6.59-5.158 8.096z" fill="#F79E1B"/><path fill-rule="evenodd" clip-rule="evenodd" d="M16.82 18.08h.009l-.006-.005a8.942 8.942 0 003.5-7.075 8.94 8.94 0 00-3.5-7.075 8.928 8.928 0 00-3.499 7.074 8.928 8.928 0 003.5 7.077l-.005.004z" fill="#FF5F00"/></svg>