<svg width="22" height="23" fill="none" xmlns="http://www.w3.org/2000/svg"><path d="M7.435 20.345c-.087.077-.3.115-.64.115H2.57c-.456 0-.64-.191-.545-.572L5.438 5.889a8.29 8.29 0 01.79-2.014 6.407 6.407 0 011.393-1.742c.569-.505 1.258-.911 2.068-1.216.808-.304 1.738-.457 2.79-.457h9.053c.238 0 .384.035.437.102.051.066.04.26-.04.584l-.786 3.229c-.062.248-.14.414-.242.5-.101.085-.26.128-.478.128H13.07c-.398 0-.729.052-.991.158a1.827 1.827 0 00-.631.385c-.156.152-.28.324-.365.514a3.32 3.32 0 00-.199.571l-.43 1.771h7.83c.238 0 .382.04.433.114.052.077.036.278-.043.6l-.724 2.972c-.107.438-.348.658-.726.658h-7.83l-1.743 7.142c-.056.228-.128.381-.216.457" fill="#fff"/><path fill-rule="evenodd" clip-rule="evenodd" d="M3.11 7L.082 19.407l-.001.005c-.126.512-.201 1.487.562 2.286.666.697 1.524.762 1.925.762h4.227c.229 0 .498-.012.768-.06a2.448 2.448 0 001.186-.548c.585-.51.772-1.2.843-1.483l.002-.007 1.37-5.616h6.26c.605 0 1.264-.19 1.809-.684.51-.463.746-1.038.859-1.5l.724-2.97c.05-.207.104-.461.123-.722a2.64 2.64 0 00-.013-.533 2.187 2.187 0 00-.345-.93l-.01-.015-.01-.014c-.102-.148-.33-.375-.33-.375S17.267 7 10.795 7l-.341 1.402h7.83c.238 0 .382.04.434.114.051.077.035.278-.043.6l-.725 2.972c-.107.438-.348.658-.725.658h-7.83l-1.743 7.142c-.057.228-.129.381-.216.457-.088.077-.3.115-.64.115H2.57c-.456 0-.64-.191-.545-.572L5.168 7H3.109z" fill="#1B1B2F"/></svg>