<svg width="24" height="24" fill="none" xmlns="http://www.w3.org/2000/svg"><path d="M2 6a4 4 0 014-4h12a4 4 0 014 4v12a4 4 0 01-4 4H6a4 4 0 01-4-4V6z" fill="#FF4F13"/><path fill-rule="evenodd" clip-rule="evenodd" d="M6 0h12a6 6 0 016 6v12a6 6 0 01-6 6H6a6 6 0 01-6-6V6a6 6 0 016-6zm0 2a4 4 0 00-4 4v12a4 4 0 004 4h12a4 4 0 004-4V6a4 4 0 00-4-4H6z" fill="#1B1B2F"/><path fill-rule="evenodd" clip-rule="evenodd" d="M10.93 6.333l5.404 5.823L10.93 18l-3.264-2.634 2.961-2.969-2.961-3.056 3.264-3.008z" fill="#fff"/></svg>