<svg width="85" height="62" fill="none" xmlns="http://www.w3.org/2000/svg"><path d="M54.504 20.474v14.343l-11.592-8.036 11.592-6.307z" fill="#034EA2"/><path d="M31.406 20.474v14.343l11.592-8.036-11.592-6.307z" fill="#9DA844"/><path d="M42.998 6L28 14.252l14.998-.043V6z" fill="#FFDA00"/><path d="M43.002 6l14.954 8.252-14.954-.043V6z" fill="#EDC0BF"/><path d="M43 26.781l-14.953 10.24H43V26.78z" fill="#D5D10F"/><path d="M43.002 26.781l14.954 10.24H43.002V26.78z" fill="#00B2E9"/><path d="M28.047 37.02h14.91V47l-14.91-9.98z" fill="#F5E882"/><path d="M57.912 37.02h-14.91V47l14.91-9.98z" fill="#ABE1FA"/><path d="M28.047 14.209h14.998v8.122L28.047 14.21z" fill="#F68B1F"/><path d="M58 14.209H43.002v8.122L58 14.21z" fill="#EE478A"/><path opacity=".8" d="M57.955 37.064V14.209l-14.954 8.122-14.954-8.122v22.855l3.362 2.203V20.473l11.592 6.265 11.547-6.264v18.793l3.407-2.203z" fill="#2C383E"/><path d="M54.505 20.474V39.31l3.451-2.246V14.209l-14.954 8.165v4.364l11.503-6.264z" fill="#2C383E"/><path fill-rule="evenodd" clip-rule="evenodd" d="M2 .5A1.5 1.5 0 00.5 2v48.53a1.5 1.5 0 001.5 1.5h39V58H18a2 2 0 100 4h49a2 2 0 100-4H44v-5.97h39a1.5 1.5 0 001.5-1.5V2A1.5 1.5 0 0083 .5H2zm1.5 48.53V3.5h78v45.53h-78z" fill="#2C383E"/></svg>