<svg width="85" height="62" fill="none" xmlns="http://www.w3.org/2000/svg"><path fill-rule="evenodd" clip-rule="evenodd" d="M.5 2A1.5 1.5 0 012 .5h81A1.5 1.5 0 0184.5 2v48.53a1.5 1.5 0 01-1.5 1.5H44V58h23a2 2 0 110 4H18a2 2 0 110-4h23v-5.97H2a1.5 1.5 0 01-1.5-1.5V2zm3 1.5v45.53h78V3.5h-78zM32.34 10a5.957 5.957 0 01-1.309 4.171 4.687 4.687 0 01-1.67 1.366 4.577 4.577 0 01-2.092.46 5.63 5.63 0 01.279-2.138c.23-.687.59-1.32 1.06-1.865A5.565 5.565 0 0132.34 10zm-3.424 7.04c.926-.377 2.07-.843 3.335-.768v-.003c.91.04 1.8.294 2.6.743a5.986 5.986 0 012.009 1.843 5.878 5.878 0 00-1.978 2.122 6.039 6.039 0 00-.743 2.832 5.899 5.899 0 00.926 3.147 5.708 5.708 0 002.45 2.128 14.315 14.315 0 01-1.74 3.682c-1.041 1.661-2.201 3.157-3.866 3.195-.814.018-1.365-.227-1.94-.482-.601-.267-1.228-.545-2.209-.545-1.01 0-1.633.279-2.242.552-.546.245-1.082.485-1.877.513-1.68.059-2.944-1.765-4-3.296-2.17-3.22-3.806-9.112-1.576-13.067a6.205 6.205 0 012.176-2.345 6.022 6.022 0 013.029-.921c.927-.018 1.817.345 2.594.662.594.242 1.123.457 1.554.457.391 0 .9-.206 1.498-.45zm16.613.506v-4.344l-3.569.003v4.401h-2.587v2.876h2.662v10.582c0 3.497 1.353 4.892 4.862 4.892.672.009 1.343-.042 2.007-.152v-2.89c-.404.053-.811.083-1.22.09-1.486 0-2.155-.781-2.155-2.315V20.413h3.39v-2.867h-3.39zm11.523 18.252h3.718L67 17.606h-3.628l-4.386 14.617h-.09L54.51 17.606h-3.703l6.245 18.192z" fill="#2C383E"/></svg>