<svg width="36" height="29" fill="none" xmlns="http://www.w3.org/2000/svg"><path d="M24.268 1.796l.314-1.17a.497.497 0 10-.96-.257l-.314 1.17a.497.497 0 00.96.257zm-.807 7.081c-4.004 1.243-7.004 4.79-7.442 9.084a30.748 30.748 0 00-4.443 1.847L6.621 22.67a2.738 2.738 0 01-3.737-1.002L.366 17.307a2.739 2.739 0 011.001-3.737l4.106-2.37a.497.497 0 01.68.182l3.225 5.587c.14.242.452.323.692.175a.51.51 0 00.16-.69l-3.25-5.628a.496.496 0 01.146-.656 30.596 30.596 0 008.46-8.834c.834-1.323 2.778-1.288 3.562.07l4.313 7.471zm1.409-.333a.492.492 0 00.34-.392 3.11 3.11 0 00-1.986-3.429.497.497 0 00-.599.717l1.663 2.88a.485.485 0 00.443.248l.138-.024zM13.734 25.742l-2.36-4.095a.498.498 0 00-.679-.182l-1.41.814-.017.01-1.605.927a.497.497 0 00-.182.679l2.363 4.093c.303.524.848.809 1.402.809.451 0 .669-.128 1.405-.56.143-.084.305-.18.491-.287a1.618 1.618 0 00.592-2.208zM29.021 3.693a.497.497 0 01-.182.68l-.677.392c-.71.413-.716.417-.857.417-.505 0-.69-.674-.25-.928l1.287-.743a.497.497 0 01.68.182zm-4.697 12.78c-.882.034-1.755.106-2.618.215a5.459 5.459 0 014.47-3.066 2.07 2.07 0 01-.229 1.967l-.518.518a2.06 2.06 0 01-1.105.366z" fill="#066EAE"/><path fill-rule="evenodd" clip-rule="evenodd" d="M17.224 19.05c0-5.176 4.211-9.388 9.388-9.388S36 13.874 36 19.05c0 5.177-4.212 9.388-9.388 9.388-5.177 0-9.388-4.211-9.388-9.388zm12.81-5.765a6.664 6.664 0 00-3.422-.94 6.713 6.713 0 00-6.706 6.705c0 1.25.343 2.42.94 3.422l9.188-9.187zm-7.382 11.174a6.67 6.67 0 003.96 1.297 6.713 6.713 0 006.706-6.706 6.67 6.67 0 00-1.297-3.96l-9.369 9.37z" fill="#066EAE"/></svg>