<svg width="29" height="29" fill="none" xmlns="http://www.w3.org/2000/svg"><path fill-rule="evenodd" clip-rule="evenodd" d="M28.32 8.685L20.395.76a1.076 1.076 0 00-1.521 0L.76 18.874c-.42.42-.42 1.101 0 1.521l7.924 7.925c.42.42 1.101.42 1.521 0L28.32 10.206c.42-.42.42-1.101 0-1.521zm-2.93 1.38l-1.226-1.226a.674.674 0 11.953-.953l1.226 1.225a.674.674 0 11-.953.953zM17.127 5.58l1.226 1.226a.674.674 0 10.952-.953L18.08 4.627a.674.674 0 00-.953.953zm6.374 6.374l-1.226-1.225a.674.674 0 11.954-.953L24.454 11a.674.674 0 01-.953.953zM20.927 9.38L19.7 8.155a.674.674 0 11.953-.953l1.226 1.225a.674.674 0 11-.953.953zm-1.91-5.689l1.225 1.225a.674.674 0 10.953-.953l-1.226-1.225a.674.674 0 00-.953.953zm2.594 10.153l-1.225-1.226a.674.674 0 11.953-.953l1.225 1.226a.674.674 0 11-.953.953zm-3.8-3.8l1.226 1.226a.674.674 0 00.953-.953L18.765 9.09a.674.674 0 00-.953.953zm-1.348-1.349L15.238 7.47a.674.674 0 11.953-.953l1.225 1.225a.674.674 0 11-.953.953zm2.035 5.812l1.226 1.225a.673.673 0 10.953-.953l-1.226-1.225a.674.674 0 10-.953.953zm-1.349-1.35l-1.225-1.225a.674.674 0 01.953-.953l1.226 1.226a.673.673 0 11-.954.952zm-3.8-3.8l1.226 1.226a.674.674 0 10.953-.953l-1.226-1.225a.674.674 0 10-.952.953zM8.812 20.27a4.506 4.506 0 116.373-6.373A4.506 4.506 0 018.81 20.27zm4.252-4.82a.674.674 0 11.509-1.247l.665.272a.674.674 0 01.37.369l.27.665a.672.672 0 01-.627.935.671.671 0 01-.62-.427l-.165-.402-.402-.164zm-3.306 4.243a.672.672 0 01-.37-.37l-.27-.664a.674.674 0 011.247-.51l.164.403.403.164a.672.672 0 01.224 1.098.675.675 0 01-.734.15l-.664-.271zm-.493-3.454a.675.675 0 001.1-.222l.164-.403.403-.164a.673.673 0 10-.51-1.248l-.664.271a.674.674 0 00-.37.37l-.27.664a.674.674 0 00.147.732zm3.92 3.76a.674.674 0 01-.122-1.284l.402-.164.165-.402a.674.674 0 111.248.51l-.271.664a.672.672 0 01-.37.37l-.665.27a.673.673 0 01-.387.037zm-9.286.564l4.62 4.62a.674.674 0 00.953-.953l-4.62-4.62a.674.674 0 10-.953.953z" fill="#066EAE"/></svg>