<svg width="27" height="29" fill="none" xmlns="http://www.w3.org/2000/svg"><path fill-rule="evenodd" clip-rule="evenodd" d="M14.51 0a2.703 2.703 0 00-2.703 2.703v7.391c-.65.092-1.383.247-2.21.474-1.664.455-3.04.869-4.179 1.264V4.915a2.703 2.703 0 00-5.407 0v12.47c-.016.493-.011 1.032-.006 1.63.003.32.007.659.007 1.015 0 5.43 4.155 8.97 9.584 8.97 2.494 0 4.77-.928 6.504-2.458h.008l.062-.063c.32-.288.621-.597.901-.924l9.064-9.297a.903.903 0 00-.008-1.269 4.515 4.515 0 00-6.385 0l-2.528 2.528V2.703A2.703 2.703 0 0014.511 0z" fill="#066EAE"/></svg>