<svg width="27" height="29" fill="none" xmlns="http://www.w3.org/2000/svg"><g clip-path="url(#clip0)"><path fill-rule="evenodd" clip-rule="evenodd" d="M18.6 13.969h6.736c.914 0 1.662.727 1.662 1.614v6.618c0 .887-.748 1.614-1.662 1.614H18.6c-2.786 0-5.066-2.216-5.066-4.923s2.278-4.923 5.066-4.923zM2.666 6.195h4.299a5.762 5.762 0 01-.012-.356C6.955 2.615 9.643 0 12.963 0c3.318 0 6.008 2.615 6.008 5.839 0 .118-.005.236-.01.354l1.582-.003c1.615-.002 2.936 1.228 2.936 2.797v.467c.796.512 1.323 1.39 1.323 2.381v1.03h-1.865v-.687c0-.739-.622-1.34-1.38-1.34H4.4V9.342c0-.198.168-.36.372-.36H7.9a5.741 5.741 0 01-.525-.994H3.082c-.535 0-.97.424-.97.941v17.144c0 .519.438.941.97.941h18.872c.534 0 .969-.425.969-.941v-1.079h1.913v1.782h-.005c-.007 1.232-1.36 2.225-2.695 2.225H2.659C1.197 29 0 27.837 0 26.416V8.786c0-1.425 1.2-2.59 2.666-2.59zm15.885 1.791c-.143.35-.318.682-.524.994h3.837c.107 0 .211.005.315.016v-.068c0-.52-.437-.942-.968-.942h-2.66zm-5.187.996v-.547c.308-.012.57-.052.784-.118.214-.069.416-.175.607-.324.19-.15.345-.335.47-.559a1.52 1.52 0 00.181-.734c0-.455-.17-.83-.51-1.128-.257-.22-.767-.43-1.532-.628V3.882a.98.98 0 01.282.2c.056.067.119.187.192.36l1.408-.215a1.553 1.553 0 00-.583-.923c-.299-.227-.73-.354-1.297-.39v-.36h-.548v.36c-.62.031-1.086.194-1.402.49a1.434 1.434 0 00-.47 1.092c0 .318.077.587.235.81.158.221.34.382.554.483.213.1.573.22 1.083.357v1.298a.965.965 0 01-.382-.284c-.077-.106-.138-.28-.184-.521l-1.523.172c.046.243.114.45.204.623a1.811 1.811 0 00.984.828c.23.085.531.142.9.173v.547h.547zm-.549-5.119c-.162.052-.274.116-.337.192a.406.406 0 00-.095.269c0 .106.032.2.097.278.066.08.177.146.338.2v-.939h-.003zm.549 3.616c.214-.047.37-.125.469-.231a.483.483 0 00.024-.677c-.085-.097-.248-.187-.493-.27V7.48zm5.49 8.295h5.977v6.24h-5.976c-1.766 0-3.21-1.404-3.21-3.12 0-1.718 1.444-3.12 3.21-3.12zm1.47 2.087c.605 0 1.095.476 1.095 1.064 0 .588-.49 1.064-1.095 1.064s-1.095-.476-1.095-1.064c0-.588.49-1.064 1.095-1.064z" fill="#066EAE"/></g><defs><clipPath id="clip0"><path fill="#fff" d="M0 0h27v29H0z"/></clipPath></defs></svg>